<svg width="78" height="64" viewBox="0 0 78 64" fill="none" xmlns="http://www.w3.org/2000/svg">
<path d="M24.4859 49V40.4102H27.7086C28.3648 40.4102 28.8902 40.498 29.2848 40.6738C29.6832 40.8457 29.9937 41.1133 30.2164 41.4766C30.443 41.8359 30.5562 42.2129 30.5562 42.6074C30.5562 42.9746 30.4566 43.3203 30.2574 43.6445C30.0582 43.9688 29.7574 44.2305 29.3551 44.4297C29.8746 44.582 30.273 44.8418 30.5504 45.209C30.8316 45.5762 30.9723 46.0098 30.9723 46.5098C30.9723 46.9121 30.8863 47.2871 30.7145 47.6348C30.5465 47.9785 30.3375 48.2441 30.0875 48.4316C29.8375 48.6191 29.523 48.7617 29.1441 48.8594C28.7691 48.9531 28.3082 49 27.7613 49H24.4859ZM25.6227 44.0195H27.4801C27.984 44.0195 28.3453 43.9863 28.5641 43.9199C28.8531 43.834 29.0699 43.6914 29.2145 43.4922C29.3629 43.293 29.4371 43.043 29.4371 42.7422C29.4371 42.457 29.3687 42.207 29.232 41.9922C29.0953 41.7734 28.9 41.625 28.6461 41.5469C28.3922 41.4648 27.9566 41.4238 27.3395 41.4238H25.6227V44.0195ZM25.6227 47.9863H27.7613C28.1285 47.9863 28.3863 47.9727 28.5348 47.9453C28.7965 47.8984 29.0152 47.8203 29.191 47.7109C29.3668 47.6016 29.5113 47.4434 29.6246 47.2363C29.7379 47.0254 29.7945 46.7832 29.7945 46.5098C29.7945 46.1895 29.7125 45.9121 29.5484 45.6777C29.3844 45.4395 29.1559 45.2734 28.8629 45.1797C28.5738 45.082 28.1559 45.0332 27.609 45.0332H25.6227V47.9863ZM32.3094 45.8887C32.3094 44.7363 32.6297 43.8828 33.2703 43.3281C33.8055 42.8672 34.4578 42.6367 35.2273 42.6367C36.0828 42.6367 36.782 42.918 37.325 43.4805C37.868 44.0391 38.1395 44.8125 38.1395 45.8008C38.1395 46.6016 38.0184 47.2324 37.7762 47.6934C37.5379 48.1504 37.1883 48.5059 36.7273 48.7598C36.2703 49.0137 35.7703 49.1406 35.2273 49.1406C34.3562 49.1406 33.6512 48.8613 33.1121 48.3027C32.577 47.7441 32.3094 46.9395 32.3094 45.8887ZM33.3934 45.8887C33.3934 46.6855 33.5672 47.2832 33.9148 47.6816C34.2625 48.0762 34.7 48.2734 35.2273 48.2734C35.7508 48.2734 36.1863 48.0742 36.534 47.6758C36.8816 47.2773 37.0555 46.6699 37.0555 45.8535C37.0555 45.084 36.8797 44.502 36.5281 44.1074C36.1805 43.709 35.7469 43.5098 35.2273 43.5098C34.7 43.5098 34.2625 43.707 33.9148 44.1016C33.5672 44.4961 33.3934 45.0918 33.3934 45.8887ZM39.6816 42.7773H40.7363V47.5234L43.6602 42.7773H44.7969V49H43.7422V44.2832L40.8184 49H39.6816V42.7773ZM43.3438 40.4219H44.0645C44.0059 40.9102 43.8262 41.2852 43.5254 41.5469C43.2285 41.8086 42.832 41.9395 42.3359 41.9395C41.8359 41.9395 41.4355 41.8105 41.1348 41.5527C40.8379 41.291 40.6602 40.9141 40.6016 40.4219H41.3223C41.377 40.6875 41.4844 40.8867 41.6445 41.0195C41.8086 41.1484 42.0273 41.2129 42.3008 41.2129C42.6172 41.2129 42.8555 41.1504 43.0156 41.0254C43.1797 40.8965 43.2891 40.6953 43.3438 40.4219ZM46.1164 42.7773H51.173V43.6504H49.1691V49H48.1203V43.6504H46.1164V42.7773ZM52.4809 42.7773H53.5355V47.5234L56.4594 42.7773H57.5961V49H56.5414V44.2832L53.6176 49H52.4809V42.7773Z" fill="black"/>
<path d="M40.3353 21.9998C41.2465 21.9998 42.0817 21.7758 42.841 21.3278C43.6004 20.8798 44.2038 20.2758 44.6514 19.5158C45.099 18.7558 45.3228 17.9198 45.3228 17.0078C45.3228 16.0958 45.099 15.2598 44.6514 14.4998C44.2038 13.7398 43.6004 13.1358 42.841 12.6878C42.0817 12.2398 41.2465 12.0158 40.3353 12.0158C39.4242 12.0158 38.5889 12.2398 37.8296 12.6878C37.0703 13.1358 36.4668 13.7398 36.0193 14.4998C35.5717 15.2598 35.3479 16.0958 35.3479 17.0078C35.3479 17.9198 35.5717 18.7558 36.0193 19.5158C36.4668 20.2758 37.0703 20.8798 37.8296 21.3278C38.5889 21.7758 39.4242 21.9998 40.3353 21.9998ZM40.3353 12.9998C41.0547 12.9998 41.7221 13.1798 42.3375 13.5398C42.9529 13.8998 43.4405 14.3878 43.8002 15.0038C44.1599 15.6198 44.3397 16.2878 44.3397 17.0078C44.3397 17.7278 44.1599 18.3958 43.8002 19.0118C43.4405 19.6278 42.9529 20.1158 42.3375 20.4758C41.7221 20.8358 41.0547 21.0158 40.3353 21.0158C39.616 21.0158 38.9486 20.8358 38.3331 20.4758C37.7177 20.1158 37.2301 19.6278 36.8705 19.0118C36.5108 18.3958 36.331 17.7278 36.331 17.0078C36.331 16.2878 36.5108 15.6198 36.8705 15.0038C37.2301 14.3878 37.7177 13.8998 38.3331 13.5398C38.9486 13.1798 39.616 12.9998 40.3353 12.9998ZM40.3353 23.9918C38.8327 23.9918 37.4739 24.3198 36.259 24.9758C35.0441 25.6318 34.093 26.5198 33.4056 27.6398C32.7023 28.8078 32.3506 30.0958 32.3506 31.5038V32.0078H48.3201V31.5038C48.3201 30.0958 47.9684 28.8078 47.265 27.6398C46.5777 26.5198 45.6265 25.6318 44.4116 24.9758C43.1967 24.3198 41.838 23.9918 40.3353 23.9918ZM33.3337 30.9998C33.4136 29.8638 33.7693 28.8398 34.4007 27.9278C35.0321 27.0158 35.8634 26.2998 36.8945 25.7798C37.9255 25.2598 39.0725 24.9998 40.3353 24.9998C41.5982 24.9998 42.7451 25.2598 43.7762 25.7798C44.8073 26.2998 45.6345 27.0158 46.2579 27.9278C46.8814 28.8398 47.241 29.8638 47.337 30.9998H33.3337Z" fill="black"/>
</svg>
