<svg width="78" height="64" viewBox="0 0 78 64" fill="none" xmlns="http://www.w3.org/2000/svg">
<path d="M44.4791 14.008C45.0865 13.992 45.674 14.104 46.2415 14.344C46.809 14.584 47.3085 14.924 47.7401 15.364C48.1717 15.804 48.4954 16.312 48.7112 16.888C48.927 17.464 49.019 18.056 48.987 18.664C48.987 19.368 48.8471 20.048 48.5674 20.704C48.2876 21.36 47.892 21.936 47.3805 22.432L39.9952 29.608L32.6099 22.432C32.0983 21.936 31.7027 21.36 31.423 20.704C31.1432 20.048 31.0033 19.368 31.0033 18.664C30.9714 18.056 31.0633 17.464 31.2791 16.888C31.4949 16.312 31.8186 15.804 32.2502 15.364C32.6818 14.924 33.1814 14.584 33.7488 14.344C34.3163 14.104 34.9038 13.992 35.5112 14.008C36.2306 14.008 36.918 14.164 37.5734 14.476C38.2288 14.788 38.7803 15.224 39.2279 15.784L39.9952 16.768L40.7864 15.784C41.234 15.224 41.7815 14.788 42.429 14.476C43.0764 14.164 43.7597 14.008 44.4791 14.008ZM44.4791 13C43.5999 13 42.7686 13.188 41.9854 13.564C41.2021 13.94 40.5387 14.472 39.9952 15.16C39.4517 14.472 38.7883 13.94 38.005 13.564C37.2217 13.188 36.3904 13 35.5112 13C34.7599 12.984 34.0406 13.12 33.3532 13.408C32.6658 13.696 32.0624 14.108 31.5429 14.644C31.0233 15.18 30.6277 15.796 30.3559 16.492C30.0842 17.188 29.9643 17.912 29.9963 18.664C29.9963 19.512 30.1641 20.324 30.4998 21.1C30.8355 21.876 31.3071 22.56 31.9145 23.152L39.9952 31L48.0998 23.152C48.7072 22.56 49.1748 21.876 49.5025 21.1C49.8302 20.324 49.9941 19.512 49.9941 18.664C50.026 17.912 49.9062 17.188 49.6344 16.492C49.3627 15.796 48.967 15.18 48.4475 14.644C47.928 14.108 47.3245 13.696 46.6371 13.408C45.9498 13.12 45.2304 12.984 44.4791 13Z" fill="black"/>
<path d="M11.843 40.4102H12.8742V47.2129L17.4445 40.4102H18.5871V49H17.5559V42.2148L12.9797 49H11.843V40.4102ZM21.9926 46.1875V45.3613C22.4379 45.3574 22.7406 45.3398 22.9008 45.3086C23.0648 45.2773 23.2191 45.1836 23.3637 45.0273C23.5082 44.8711 23.5805 44.6758 23.5805 44.4414C23.5805 44.1562 23.4848 43.9297 23.2934 43.7617C23.1059 43.5898 22.8617 43.5039 22.5609 43.5039C21.9672 43.5039 21.5512 43.8535 21.3129 44.5527L20.3109 44.3887C20.6234 43.2207 21.3773 42.6367 22.5727 42.6367C23.2367 42.6367 23.7562 42.8184 24.1312 43.1816C24.5102 43.5449 24.6996 43.9785 24.6996 44.4824C24.6996 44.9902 24.4535 45.3945 23.9613 45.6953C24.2738 45.8633 24.5082 46.0781 24.6645 46.3398C24.8207 46.5977 24.8988 46.9043 24.8988 47.2598C24.8988 47.8184 24.6957 48.2715 24.2895 48.6191C23.8832 48.9668 23.3148 49.1406 22.5844 49.1406C21.1664 49.1406 20.3441 48.5098 20.1176 47.248L21.1078 47.0371C21.1977 47.4355 21.3793 47.7441 21.6527 47.9629C21.9301 48.1816 22.2465 48.291 22.602 48.291C22.9574 48.291 23.2523 48.1914 23.4867 47.9922C23.725 47.7891 23.8441 47.5312 23.8441 47.2188C23.8441 46.9766 23.7699 46.7656 23.6215 46.5859C23.473 46.4062 23.3148 46.2949 23.1469 46.252C22.9789 46.2051 22.6742 46.1816 22.2328 46.1816C22.1977 46.1816 22.1176 46.1836 21.9926 46.1875ZM30.8414 40.2051L31.773 40.2168C31.7301 40.6348 31.6363 40.9258 31.4918 41.0898C31.3512 41.2539 31.1676 41.3594 30.941 41.4062C30.7184 41.4531 30.2789 41.4766 29.6227 41.4766C28.7516 41.4766 28.1578 41.5605 27.8414 41.7285C27.525 41.8965 27.2965 42.166 27.1559 42.5371C27.0191 42.9043 26.943 43.3789 26.9273 43.9609C27.193 43.5664 27.5035 43.2715 27.859 43.0762C28.2145 42.877 28.6148 42.7773 29.0602 42.7773C29.8766 42.7773 30.5523 43.0586 31.0875 43.6211C31.6227 44.1797 31.8902 44.9375 31.8902 45.8945C31.8902 46.6211 31.7555 47.2168 31.4859 47.6816C31.2164 48.1465 30.8961 48.5059 30.525 48.7598C30.1578 49.0137 29.6559 49.1406 29.0191 49.1406C28.2809 49.1406 27.7066 48.9727 27.2965 48.6367C26.8863 48.2969 26.5719 47.8633 26.3531 47.3359C26.1344 46.8086 26.025 45.8906 26.025 44.582C26.025 42.9375 26.3023 41.8301 26.857 41.2598C27.4156 40.6895 28.273 40.4043 29.4293 40.4043C30.148 40.4043 30.5562 40.3926 30.6539 40.3691C30.7516 40.3457 30.8141 40.291 30.8414 40.2051ZM30.7887 45.8652C30.7887 45.2168 30.6344 44.6855 30.3258 44.2715C30.0211 43.8574 29.5895 43.6504 29.0309 43.6504C28.4488 43.6504 27.9996 43.8691 27.6832 44.3066C27.3668 44.7441 27.2086 45.3281 27.2086 46.0586C27.2086 46.7812 27.3824 47.334 27.7301 47.7168C28.0816 48.0996 28.5133 48.291 29.025 48.291C29.5484 48.291 29.9723 48.0703 30.2965 47.6289C30.6246 47.1836 30.7887 46.5957 30.7887 45.8652ZM33.4617 51.3848V42.7773H34.4227V43.5859C34.6492 43.2695 34.9051 43.0332 35.1902 42.877C35.4754 42.7168 35.8211 42.6367 36.2273 42.6367C36.7586 42.6367 37.2273 42.7734 37.6336 43.0469C38.0398 43.3203 38.3465 43.707 38.5535 44.207C38.7605 44.7031 38.8641 45.248 38.8641 45.8418C38.8641 46.4785 38.7488 47.0527 38.5184 47.5645C38.2918 48.0723 37.9598 48.4629 37.5223 48.7363C37.0887 49.0059 36.6316 49.1406 36.1512 49.1406C35.7996 49.1406 35.4832 49.0664 35.202 48.918C34.9246 48.7695 34.6961 48.582 34.5164 48.3555V51.3848H33.4617ZM34.4168 45.9238C34.4168 46.7246 34.5789 47.3164 34.9031 47.6992C35.2273 48.082 35.6199 48.2734 36.0809 48.2734C36.5496 48.2734 36.95 48.0762 37.282 47.6816C37.618 47.2832 37.7859 46.668 37.7859 45.8359C37.7859 45.043 37.6219 44.4492 37.2937 44.0547C36.9695 43.6602 36.5809 43.4629 36.1277 43.4629C35.6785 43.4629 35.2801 43.6738 34.9324 44.0957C34.5887 44.5137 34.4168 45.123 34.4168 45.9238ZM44.502 48.2324C44.1113 48.5645 43.7344 48.7988 43.3711 48.9355C43.0117 49.0723 42.625 49.1406 42.2109 49.1406C41.5273 49.1406 41.002 48.9746 40.6348 48.6426C40.2676 48.3066 40.084 47.8789 40.084 47.3594C40.084 47.0547 40.1523 46.7773 40.2891 46.5273C40.4297 46.2734 40.6113 46.0703 40.834 45.918C41.0605 45.7656 41.3145 45.6504 41.5957 45.5723C41.8027 45.5176 42.1152 45.4648 42.5332 45.4141C43.3848 45.3125 44.0117 45.1914 44.4141 45.0508C44.418 44.9062 44.4199 44.8145 44.4199 44.7754C44.4199 44.3457 44.3203 44.043 44.1211 43.8672C43.8516 43.6289 43.4512 43.5098 42.9199 43.5098C42.4238 43.5098 42.0566 43.5977 41.8184 43.7734C41.584 43.9453 41.4102 44.252 41.2969 44.6934L40.2656 44.5527C40.3594 44.1113 40.5137 43.7559 40.7285 43.4863C40.9434 43.2129 41.2539 43.0039 41.6602 42.8594C42.0664 42.7109 42.5371 42.6367 43.0723 42.6367C43.6035 42.6367 44.0352 42.6992 44.3672 42.8242C44.6992 42.9492 44.9434 43.1074 45.0996 43.2988C45.2559 43.4863 45.3652 43.7246 45.4277 44.0137C45.4629 44.1934 45.4805 44.5176 45.4805 44.9863V46.3926C45.4805 47.373 45.502 47.9941 45.5449 48.2559C45.5918 48.5137 45.6816 48.7617 45.8145 49H44.7129C44.6035 48.7812 44.5332 48.5254 44.502 48.2324ZM44.4141 45.877C44.0312 46.0332 43.457 46.166 42.6914 46.2754C42.2578 46.3379 41.9512 46.4082 41.7715 46.4863C41.5918 46.5645 41.4531 46.6797 41.3555 46.832C41.2578 46.9805 41.209 47.1465 41.209 47.3301C41.209 47.6113 41.3145 47.8457 41.5254 48.0332C41.7402 48.2207 42.0527 48.3145 42.4629 48.3145C42.8691 48.3145 43.2305 48.2266 43.5469 48.0508C43.8633 47.8711 44.0957 47.627 44.2441 47.3184C44.3574 47.0801 44.4141 46.7285 44.4141 46.2637V45.877ZM47.427 42.7773H48.4816V45.3672H51.4055V42.7773H52.4602V49H51.4055V46.2402H48.4816V49H47.427V42.7773ZM54.3598 42.7773H55.4145V45.3672H58.3383V42.7773H59.393V49H58.3383V46.2402H55.4145V49H54.3598V42.7773ZM67.2105 42.7773H68.2652V49H67.2105V42.7773ZM61.3102 42.7773H62.3648V45.209H63.7008C64.5719 45.209 65.2418 45.3789 65.7105 45.7188C66.1832 46.0547 66.4195 46.5195 66.4195 47.1133C66.4195 47.6328 66.2223 48.0781 65.8277 48.4492C65.4371 48.8164 64.8102 49 63.9469 49H61.3102V42.7773ZM62.3648 48.1328H63.4723C64.1402 48.1328 64.6168 48.0508 64.902 47.8867C65.1871 47.7227 65.3297 47.4668 65.3297 47.1191C65.3297 46.8496 65.2242 46.6094 65.0133 46.3984C64.8023 46.1875 64.3355 46.082 63.6129 46.082H62.3648V48.1328ZM74.4715 46.9961L75.5613 47.1309C75.3895 47.7676 75.0711 48.2617 74.6063 48.6133C74.1414 48.9648 73.5477 49.1406 72.825 49.1406C71.9148 49.1406 71.1922 48.8613 70.657 48.3027C70.1258 47.7402 69.8602 46.9531 69.8602 45.9414C69.8602 44.8945 70.1297 44.082 70.6688 43.5039C71.2078 42.9258 71.907 42.6367 72.7664 42.6367C73.5984 42.6367 74.2781 42.9199 74.8055 43.4863C75.3328 44.0527 75.5965 44.8496 75.5965 45.877C75.5965 45.9395 75.5945 46.0332 75.5906 46.1582H70.95C70.9891 46.8418 71.1824 47.3652 71.5301 47.7285C71.8777 48.0918 72.3113 48.2734 72.8309 48.2734C73.2176 48.2734 73.5477 48.1719 73.8211 47.9688C74.0945 47.7656 74.3113 47.4414 74.4715 46.9961ZM71.0086 45.291H74.4832C74.4363 44.7676 74.3035 44.375 74.0848 44.1133C73.7488 43.707 73.3133 43.5039 72.7781 43.5039C72.2938 43.5039 71.8855 43.666 71.5535 43.9902C71.2254 44.3145 71.0438 44.748 71.0086 45.291Z" fill="black"/>
</svg>
