<svg width="237" height="53" viewBox="0 0 237 53" fill="none" xmlns="http://www.w3.org/2000/svg">
<path d="M1.25 3.54688H10.2578V15H8.73438V4.89844H2.76562V15H1.25V3.54688ZM12.0312 10.8516C12.0312 9.3151 12.4583 8.17708 13.3125 7.4375C14.026 6.82292 14.8958 6.51562 15.9219 6.51562C17.0625 6.51562 17.9948 6.89062 18.7188 7.64062C19.4427 8.38542 19.8047 9.41667 19.8047 10.7344C19.8047 11.8021 19.6432 12.6432 19.3203 13.2578C19.0026 13.8672 18.5365 14.3411 17.9219 14.6797C17.3125 15.0182 16.6458 15.1875 15.9219 15.1875C14.7604 15.1875 13.8203 14.8151 13.1016 14.0703C12.388 13.3255 12.0312 12.2526 12.0312 10.8516ZM13.4766 10.8516C13.4766 11.9141 13.7083 12.7109 14.1719 13.2422C14.6354 13.7682 15.2188 14.0312 15.9219 14.0312C16.6198 14.0312 17.2005 13.7656 17.6641 13.2344C18.1276 12.7031 18.3594 11.8932 18.3594 10.8047C18.3594 9.77865 18.125 9.0026 17.6562 8.47656C17.1927 7.94531 16.6146 7.67969 15.9219 7.67969C15.2188 7.67969 14.6354 7.94271 14.1719 8.46875C13.7083 8.99479 13.4766 9.78906 13.4766 10.8516ZM21.7891 6.70312H28.3203V15H26.9219V7.86719H23.1953V12C23.1953 12.9635 23.1641 13.599 23.1016 13.9062C23.0391 14.2135 22.8672 14.4818 22.5859 14.7109C22.3047 14.9401 21.8984 15.0547 21.3672 15.0547C21.0391 15.0547 20.6615 15.0339 20.2344 14.9922V13.8203H20.8516C21.1432 13.8203 21.3516 13.7917 21.4766 13.7344C21.6016 13.6719 21.6849 13.5755 21.7266 13.4453C21.7682 13.3151 21.7891 12.8906 21.7891 12.1719V6.70312ZM30.4219 6.70312H31.8281V9.94531H33.6094C34.7708 9.94531 35.6641 10.1719 36.2891 10.625C36.9193 11.0729 37.2344 11.6927 37.2344 12.4844C37.2344 13.1771 36.9714 13.7708 36.4453 14.2656C35.9245 14.7552 35.0885 15 33.9375 15H30.4219V6.70312ZM31.8281 13.8438H33.3047C34.1953 13.8438 34.8307 13.7344 35.2109 13.5156C35.5911 13.2969 35.7812 12.9557 35.7812 12.4922C35.7812 12.1328 35.6406 11.8125 35.3594 11.5312C35.0781 11.25 34.4557 11.1094 33.4922 11.1094H31.8281V13.8438ZM40.625 11.25V10.1484C41.2188 10.1432 41.6224 10.1198 41.8359 10.0781C42.0547 10.0365 42.2604 9.91146 42.4531 9.70312C42.6458 9.49479 42.7422 9.23438 42.7422 8.92188C42.7422 8.54167 42.6146 8.23958 42.3594 8.01562C42.1094 7.78646 41.7839 7.67188 41.3828 7.67188C40.5911 7.67188 40.0365 8.13802 39.7188 9.07031L38.3828 8.85156C38.7995 7.29427 39.8047 6.51562 41.3984 6.51562C42.2839 6.51562 42.9766 6.75781 43.4766 7.24219C43.9818 7.72656 44.2344 8.30469 44.2344 8.97656C44.2344 9.65365 43.9062 10.1927 43.25 10.5938C43.6667 10.8177 43.9792 11.1042 44.1875 11.4531C44.3958 11.7969 44.5 12.2057 44.5 12.6797C44.5 13.4245 44.2292 14.0286 43.6875 14.4922C43.1458 14.9557 42.388 15.1875 41.4141 15.1875C39.5234 15.1875 38.4271 14.3464 38.125 12.6641L39.4453 12.3828C39.5651 12.9141 39.8073 13.3255 40.1719 13.6172C40.5417 13.9089 40.9635 14.0547 41.4375 14.0547C41.9115 14.0547 42.3047 13.9219 42.6172 13.6562C42.9349 13.3854 43.0938 13.0417 43.0938 12.625C43.0938 12.3021 42.9948 12.0208 42.7969 11.7812C42.599 11.5417 42.388 11.3932 42.1641 11.3359C41.9401 11.2734 41.5339 11.2422 40.9453 11.2422C40.8984 11.2422 40.7917 11.2448 40.625 11.25ZM45.4219 10.8516C45.4219 9.3151 45.849 8.17708 46.7031 7.4375C47.4167 6.82292 48.2865 6.51562 49.3125 6.51562C50.4531 6.51562 51.3854 6.89062 52.1094 7.64062C52.8333 8.38542 53.1953 9.41667 53.1953 10.7344C53.1953 11.8021 53.0339 12.6432 52.7109 13.2578C52.3932 13.8672 51.9271 14.3411 51.3125 14.6797C50.7031 15.0182 50.0365 15.1875 49.3125 15.1875C48.151 15.1875 47.2109 14.8151 46.4922 14.0703C45.7786 13.3255 45.4219 12.2526 45.4219 10.8516ZM46.8672 10.8516C46.8672 11.9141 47.099 12.7109 47.5625 13.2422C48.026 13.7682 48.6094 14.0312 49.3125 14.0312C50.0104 14.0312 50.5911 13.7656 51.0547 13.2344C51.5182 12.7031 51.75 11.8932 51.75 10.8047C51.75 9.77865 51.5156 9.0026 51.0469 8.47656C50.5833 7.94531 50.0052 7.67969 49.3125 7.67969C48.6094 7.67969 48.026 7.94271 47.5625 8.46875C47.099 8.99479 46.8672 9.78906 46.8672 10.8516ZM54.8594 6.70312H58.1016C58.8984 6.70312 59.4896 6.77083 59.875 6.90625C60.2656 7.03646 60.599 7.27865 60.875 7.63281C61.1562 7.98698 61.2969 8.41146 61.2969 8.90625C61.2969 9.30208 61.2135 9.64844 61.0469 9.94531C60.8854 10.237 60.6406 10.4818 60.3125 10.6797C60.7031 10.8099 61.026 11.0547 61.2812 11.4141C61.5417 11.7682 61.6719 12.1901 61.6719 12.6797C61.6198 13.4661 61.3385 14.0495 60.8281 14.4297C60.3177 14.8099 59.5755 15 58.6016 15H54.8594V6.70312ZM56.2656 10.1953H57.7656C58.3646 10.1953 58.776 10.1641 59 10.1016C59.224 10.0391 59.4245 9.91406 59.6016 9.72656C59.7786 9.53385 59.8672 9.30469 59.8672 9.03906C59.8672 8.60156 59.7109 8.29688 59.3984 8.125C59.0911 7.95312 58.5625 7.86719 57.8125 7.86719H56.2656V10.1953ZM56.2656 13.8438H58.1172C58.9141 13.8438 59.4609 13.7526 59.7578 13.5703C60.0547 13.3828 60.2109 13.0625 60.2266 12.6094C60.2266 12.3438 60.1406 12.099 59.9688 11.875C59.7969 11.6458 59.5729 11.5026 59.2969 11.4453C59.0208 11.3828 58.5781 11.3516 57.9688 11.3516H56.2656V13.8438ZM68.5781 13.9766C68.0573 14.4193 67.5547 14.7318 67.0703 14.9141C66.5911 15.0964 66.0755 15.1875 65.5234 15.1875C64.612 15.1875 63.9115 14.9661 63.4219 14.5234C62.9323 14.0755 62.6875 13.5052 62.6875 12.8125C62.6875 12.4062 62.7786 12.0365 62.9609 11.7031C63.1484 11.3646 63.3906 11.0938 63.6875 10.8906C63.9896 10.6875 64.3281 10.5339 64.7031 10.4297C64.9792 10.3568 65.3958 10.2865 65.9531 10.2188C67.0885 10.0833 67.9245 9.92188 68.4609 9.73438C68.4661 9.54167 68.4688 9.41927 68.4688 9.36719C68.4688 8.79427 68.3359 8.39062 68.0703 8.15625C67.7109 7.83854 67.1771 7.67969 66.4688 7.67969C65.8073 7.67969 65.3177 7.79688 65 8.03125C64.6875 8.26042 64.4557 8.66927 64.3047 9.25781L62.9297 9.07031C63.0547 8.48177 63.2604 8.00781 63.5469 7.64844C63.8333 7.28385 64.2474 7.00521 64.7891 6.8125C65.3307 6.61458 65.9583 6.51562 66.6719 6.51562C67.3802 6.51562 67.9557 6.59896 68.3984 6.76562C68.8411 6.93229 69.1667 7.14323 69.375 7.39844C69.5833 7.64844 69.7292 7.96615 69.8125 8.35156C69.8594 8.59115 69.8828 9.02344 69.8828 9.64844V11.5234C69.8828 12.8307 69.9115 13.6589 69.9688 14.0078C70.0312 14.3516 70.151 14.6823 70.3281 15H68.8594C68.7135 14.7083 68.6198 14.3672 68.5781 13.9766ZM68.4609 10.8359C67.9505 11.0443 67.1849 11.2214 66.1641 11.3672C65.5859 11.4505 65.1771 11.5443 64.9375 11.6484C64.6979 11.7526 64.513 11.9062 64.3828 12.1094C64.2526 12.3073 64.1875 12.5286 64.1875 12.7734C64.1875 13.1484 64.3281 13.4609 64.6094 13.7109C64.8958 13.9609 65.3125 14.0859 65.8594 14.0859C66.401 14.0859 66.8828 13.9688 67.3047 13.7344C67.7266 13.4948 68.0365 13.1693 68.2344 12.7578C68.3854 12.4401 68.4609 11.9714 68.4609 11.3516V10.8359ZM70.9531 6.70312H77.6953V7.86719H75.0234V15H73.625V7.86719H70.9531V6.70312ZM84.5312 12.3281L85.9844 12.5078C85.7552 13.3568 85.3307 14.0156 84.7109 14.4844C84.0911 14.9531 83.2995 15.1875 82.3359 15.1875C81.1224 15.1875 80.1589 14.8151 79.4453 14.0703C78.737 13.3203 78.3828 12.2708 78.3828 10.9219C78.3828 9.52604 78.7422 8.44271 79.4609 7.67188C80.1797 6.90104 81.112 6.51562 82.2578 6.51562C83.3672 6.51562 84.2734 6.89323 84.9766 7.64844C85.6797 8.40365 86.0312 9.46615 86.0312 10.8359C86.0312 10.9193 86.0286 11.0443 86.0234 11.2109H79.8359C79.888 12.1224 80.1458 12.8203 80.6094 13.3047C81.0729 13.7891 81.651 14.0312 82.3438 14.0312C82.8594 14.0312 83.2995 13.8958 83.6641 13.625C84.0286 13.3542 84.3177 12.9219 84.5312 12.3281ZM79.9141 10.0547H84.5469C84.4844 9.35677 84.3073 8.83333 84.0156 8.48438C83.5677 7.94271 82.987 7.67188 82.2734 7.67188C81.6276 7.67188 81.0833 7.88802 80.6406 8.32031C80.2031 8.7526 79.9609 9.33073 79.9141 10.0547ZM87.9141 6.70312H94.4453V15H93.0469V7.86719H89.3203V12C89.3203 12.9635 89.2891 13.599 89.2266 13.9062C89.1641 14.2135 88.9922 14.4818 88.7109 14.7109C88.4297 14.9401 88.0234 15.0547 87.4922 15.0547C87.1641 15.0547 86.7865 15.0339 86.3594 14.9922V13.8203H86.9766C87.2682 13.8203 87.4766 13.7917 87.6016 13.7344C87.7266 13.6719 87.8099 13.5755 87.8516 13.4453C87.8932 13.3151 87.9141 12.8906 87.9141 12.1719V6.70312ZM96.5469 6.70312H97.9531V9.94531H99.7344C100.896 9.94531 101.789 10.1719 102.414 10.625C103.044 11.0729 103.359 11.6927 103.359 12.4844C103.359 13.1771 103.096 13.7708 102.57 14.2656C102.049 14.7552 101.214 15 100.062 15H96.5469V6.70312ZM97.9531 13.8438H99.4297C100.32 13.8438 100.956 13.7344 101.336 13.5156C101.716 13.2969 101.906 12.9557 101.906 12.4922C101.906 12.1328 101.766 11.8125 101.484 11.5312C101.203 11.25 100.581 11.1094 99.6172 11.1094H97.9531V13.8438ZM110.328 11.9609L111.711 12.1406C111.56 13.0938 111.172 13.8411 110.547 14.3828C109.927 14.9193 109.164 15.1875 108.258 15.1875C107.122 15.1875 106.208 14.8177 105.516 14.0781C104.828 13.3333 104.484 12.2682 104.484 10.8828C104.484 9.98698 104.633 9.20312 104.93 8.53125C105.227 7.85938 105.677 7.35677 106.281 7.02344C106.891 6.6849 107.552 6.51562 108.266 6.51562C109.167 6.51562 109.904 6.74479 110.477 7.20312C111.049 7.65625 111.417 8.30208 111.578 9.14062L110.211 9.35156C110.081 8.79427 109.849 8.375 109.516 8.09375C109.188 7.8125 108.789 7.67188 108.32 7.67188C107.612 7.67188 107.036 7.92708 106.594 8.4375C106.151 8.94271 105.93 9.74479 105.93 10.8438C105.93 11.9583 106.143 12.7682 106.57 13.2734C106.997 13.7786 107.555 14.0312 108.242 14.0312C108.794 14.0312 109.255 13.862 109.625 13.5234C109.995 13.1849 110.229 12.6641 110.328 11.9609ZM112.906 6.70312H114.312V10.2891C114.76 10.2891 115.073 10.2031 115.25 10.0312C115.432 9.85938 115.698 9.35938 116.047 8.53125C116.323 7.875 116.547 7.44271 116.719 7.23438C116.891 7.02604 117.089 6.88542 117.312 6.8125C117.536 6.73958 117.896 6.70312 118.391 6.70312H118.672V7.86719L118.281 7.85938C117.911 7.85938 117.674 7.91406 117.57 8.02344C117.461 8.13802 117.294 8.47917 117.07 9.04688C116.857 9.58854 116.661 9.96354 116.484 10.1719C116.307 10.3802 116.034 10.5703 115.664 10.7422C116.268 10.9036 116.862 11.4661 117.445 12.4297L118.984 15H117.438L115.938 12.4297C115.63 11.9141 115.362 11.5755 115.133 11.4141C114.904 11.2474 114.63 11.1641 114.312 11.1641V15H112.906V6.70312ZM119.578 10.8516C119.578 9.3151 120.005 8.17708 120.859 7.4375C121.573 6.82292 122.443 6.51562 123.469 6.51562C124.609 6.51562 125.542 6.89062 126.266 7.64062C126.99 8.38542 127.352 9.41667 127.352 10.7344C127.352 11.8021 127.19 12.6432 126.867 13.2578C126.549 13.8672 126.083 14.3411 125.469 14.6797C124.859 15.0182 124.193 15.1875 123.469 15.1875C122.307 15.1875 121.367 14.8151 120.648 14.0703C119.935 13.3255 119.578 12.2526 119.578 10.8516ZM121.023 10.8516C121.023 11.9141 121.255 12.7109 121.719 13.2422C122.182 13.7682 122.766 14.0312 123.469 14.0312C124.167 14.0312 124.747 13.7656 125.211 13.2344C125.674 12.7031 125.906 11.8932 125.906 10.8047C125.906 9.77865 125.672 9.0026 125.203 8.47656C124.74 7.94531 124.161 7.67969 123.469 7.67969C122.766 7.67969 122.182 7.94271 121.719 8.46875C121.255 8.99479 121.023 9.78906 121.023 10.8516ZM134.688 12.3281L136.141 12.5078C135.911 13.3568 135.487 14.0156 134.867 14.4844C134.247 14.9531 133.456 15.1875 132.492 15.1875C131.279 15.1875 130.315 14.8151 129.602 14.0703C128.893 13.3203 128.539 12.2708 128.539 10.9219C128.539 9.52604 128.898 8.44271 129.617 7.67188C130.336 6.90104 131.268 6.51562 132.414 6.51562C133.523 6.51562 134.43 6.89323 135.133 7.64844C135.836 8.40365 136.188 9.46615 136.188 10.8359C136.188 10.9193 136.185 11.0443 136.18 11.2109H129.992C130.044 12.1224 130.302 12.8203 130.766 13.3047C131.229 13.7891 131.807 14.0312 132.5 14.0312C133.016 14.0312 133.456 13.8958 133.82 13.625C134.185 13.3542 134.474 12.9219 134.688 12.3281ZM130.07 10.0547H134.703C134.641 9.35677 134.464 8.83333 134.172 8.48438C133.724 7.94271 133.143 7.67188 132.43 7.67188C131.784 7.67188 131.24 7.88802 130.797 8.32031C130.359 8.7526 130.117 9.33073 130.07 10.0547ZM147.781 11.9609L149.164 12.1406C149.013 13.0938 148.625 13.8411 148 14.3828C147.38 14.9193 146.617 15.1875 145.711 15.1875C144.576 15.1875 143.661 14.8177 142.969 14.0781C142.281 13.3333 141.938 12.2682 141.938 10.8828C141.938 9.98698 142.086 9.20312 142.383 8.53125C142.68 7.85938 143.13 7.35677 143.734 7.02344C144.344 6.6849 145.005 6.51562 145.719 6.51562C146.62 6.51562 147.357 6.74479 147.93 7.20312C148.503 7.65625 148.87 8.30208 149.031 9.14062L147.664 9.35156C147.534 8.79427 147.302 8.375 146.969 8.09375C146.641 7.8125 146.242 7.67188 145.773 7.67188C145.065 7.67188 144.49 7.92708 144.047 8.4375C143.604 8.94271 143.383 9.74479 143.383 10.8438C143.383 11.9583 143.596 12.7682 144.023 13.2734C144.451 13.7786 145.008 14.0312 145.695 14.0312C146.247 14.0312 146.708 13.862 147.078 13.5234C147.448 13.1849 147.682 12.6641 147.781 11.9609ZM150.031 10.8516C150.031 9.3151 150.458 8.17708 151.312 7.4375C152.026 6.82292 152.896 6.51562 153.922 6.51562C155.062 6.51562 155.995 6.89062 156.719 7.64062C157.443 8.38542 157.805 9.41667 157.805 10.7344C157.805 11.8021 157.643 12.6432 157.32 13.2578C157.003 13.8672 156.536 14.3411 155.922 14.6797C155.312 15.0182 154.646 15.1875 153.922 15.1875C152.76 15.1875 151.82 14.8151 151.102 14.0703C150.388 13.3255 150.031 12.2526 150.031 10.8516ZM151.477 10.8516C151.477 11.9141 151.708 12.7109 152.172 13.2422C152.635 13.7682 153.219 14.0312 153.922 14.0312C154.62 14.0312 155.201 13.7656 155.664 13.2344C156.128 12.7031 156.359 11.8932 156.359 10.8047C156.359 9.77865 156.125 9.0026 155.656 8.47656C155.193 7.94531 154.615 7.67969 153.922 7.67969C153.219 7.67969 152.635 7.94271 152.172 8.46875C151.708 8.99479 151.477 9.78906 151.477 10.8516ZM159.469 6.70312H164.242V7.86719H160.875V15H159.469V6.70312ZM165.633 6.70312H172.164V15H170.766V7.86719H167.039V12C167.039 12.9635 167.008 13.599 166.945 13.9062C166.883 14.2135 166.711 14.4818 166.43 14.7109C166.148 14.9401 165.742 15.0547 165.211 15.0547C164.883 15.0547 164.505 15.0339 164.078 14.9922V13.8203H164.695C164.987 13.8203 165.195 13.7917 165.32 13.7344C165.445 13.6719 165.529 13.5755 165.57 13.4453C165.612 13.3151 165.633 12.8906 165.633 12.1719V6.70312ZM179.703 13.9766C179.182 14.4193 178.68 14.7318 178.195 14.9141C177.716 15.0964 177.201 15.1875 176.648 15.1875C175.737 15.1875 175.036 14.9661 174.547 14.5234C174.057 14.0755 173.812 13.5052 173.812 12.8125C173.812 12.4062 173.904 12.0365 174.086 11.7031C174.273 11.3646 174.516 11.0938 174.812 10.8906C175.115 10.6875 175.453 10.5339 175.828 10.4297C176.104 10.3568 176.521 10.2865 177.078 10.2188C178.214 10.0833 179.049 9.92188 179.586 9.73438C179.591 9.54167 179.594 9.41927 179.594 9.36719C179.594 8.79427 179.461 8.39062 179.195 8.15625C178.836 7.83854 178.302 7.67969 177.594 7.67969C176.932 7.67969 176.443 7.79688 176.125 8.03125C175.812 8.26042 175.581 8.66927 175.43 9.25781L174.055 9.07031C174.18 8.48177 174.385 8.00781 174.672 7.64844C174.958 7.28385 175.372 7.00521 175.914 6.8125C176.456 6.61458 177.083 6.51562 177.797 6.51562C178.505 6.51562 179.081 6.59896 179.523 6.76562C179.966 6.93229 180.292 7.14323 180.5 7.39844C180.708 7.64844 180.854 7.96615 180.938 8.35156C180.984 8.59115 181.008 9.02344 181.008 9.64844V11.5234C181.008 12.8307 181.036 13.6589 181.094 14.0078C181.156 14.3516 181.276 14.6823 181.453 15H179.984C179.839 14.7083 179.745 14.3672 179.703 13.9766ZM179.586 10.8359C179.076 11.0443 178.31 11.2214 177.289 11.3672C176.711 11.4505 176.302 11.5443 176.062 11.6484C175.823 11.7526 175.638 11.9062 175.508 12.1094C175.378 12.3073 175.312 12.5286 175.312 12.7734C175.312 13.1484 175.453 13.4609 175.734 13.7109C176.021 13.9609 176.438 14.0859 176.984 14.0859C177.526 14.0859 178.008 13.9688 178.43 13.7344C178.852 13.4948 179.161 13.1693 179.359 12.7578C179.51 12.4401 179.586 11.9714 179.586 11.3516V10.8359ZM183.242 6.70312H184.648V13.8359H187.852V6.70312H189.258V13.8359H192.469V6.70312H193.867V15H183.242V6.70312ZM201.719 12.3281L203.172 12.5078C202.943 13.3568 202.518 14.0156 201.898 14.4844C201.279 14.9531 200.487 15.1875 199.523 15.1875C198.31 15.1875 197.346 14.8151 196.633 14.0703C195.924 13.3203 195.57 12.2708 195.57 10.9219C195.57 9.52604 195.93 8.44271 196.648 7.67188C197.367 6.90104 198.299 6.51562 199.445 6.51562C200.555 6.51562 201.461 6.89323 202.164 7.64844C202.867 8.40365 203.219 9.46615 203.219 10.8359C203.219 10.9193 203.216 11.0443 203.211 11.2109H197.023C197.076 12.1224 197.333 12.8203 197.797 13.3047C198.26 13.7891 198.839 14.0312 199.531 14.0312C200.047 14.0312 200.487 13.8958 200.852 13.625C201.216 13.3542 201.505 12.9219 201.719 12.3281ZM197.102 10.0547H201.734C201.672 9.35677 201.495 8.83333 201.203 8.48438C200.755 7.94271 200.174 7.67188 199.461 7.67188C198.815 7.67188 198.271 7.88802 197.828 8.32031C197.391 8.7526 197.148 9.33073 197.102 10.0547ZM204.953 6.70312H206.359V10.1562H210.258V6.70312H211.664V15H210.258V11.3203H206.359V15H204.953V6.70312ZM213.789 6.70312H215.195V13.0312L219.094 6.70312H220.609V15H219.203V8.71094L215.305 15H213.789V6.70312ZM228.406 12.3281L229.859 12.5078C229.63 13.3568 229.206 14.0156 228.586 14.4844C227.966 14.9531 227.174 15.1875 226.211 15.1875C224.997 15.1875 224.034 14.8151 223.32 14.0703C222.612 13.3203 222.258 12.2708 222.258 10.9219C222.258 9.52604 222.617 8.44271 223.336 7.67188C224.055 6.90104 224.987 6.51562 226.133 6.51562C227.242 6.51562 228.148 6.89323 228.852 7.64844C229.555 8.40365 229.906 9.46615 229.906 10.8359C229.906 10.9193 229.904 11.0443 229.898 11.2109H223.711C223.763 12.1224 224.021 12.8203 224.484 13.3047C224.948 13.7891 225.526 14.0312 226.219 14.0312C226.734 14.0312 227.174 13.8958 227.539 13.625C227.904 13.3542 228.193 12.9219 228.406 12.3281ZM223.789 10.0547H228.422C228.359 9.35677 228.182 8.83333 227.891 8.48438C227.443 7.94271 226.862 7.67188 226.148 7.67188C225.503 7.67188 224.958 7.88802 224.516 8.32031C224.078 8.7526 223.836 9.33073 223.789 10.0547Z" fill="#121314"/>
<path d="M1.25 37.5469H10.2578V49H8.73438V38.8984H2.76562V49H1.25V37.5469ZM12.0312 44.8516C12.0312 43.3151 12.4583 42.1771 13.3125 41.4375C14.026 40.8229 14.8958 40.5156 15.9219 40.5156C17.0625 40.5156 17.9948 40.8906 18.7188 41.6406C19.4427 42.3854 19.8047 43.4167 19.8047 44.7344C19.8047 45.8021 19.6432 46.6432 19.3203 47.2578C19.0026 47.8672 18.5365 48.3411 17.9219 48.6797C17.3125 49.0182 16.6458 49.1875 15.9219 49.1875C14.7604 49.1875 13.8203 48.8151 13.1016 48.0703C12.388 47.3255 12.0312 46.2526 12.0312 44.8516ZM13.4766 44.8516C13.4766 45.9141 13.7083 46.7109 14.1719 47.2422C14.6354 47.7682 15.2188 48.0312 15.9219 48.0312C16.6198 48.0312 17.2005 47.7656 17.6641 47.2344C18.1276 46.7031 18.3594 45.8932 18.3594 44.8047C18.3594 43.7786 18.125 43.0026 17.6562 42.4766C17.1927 41.9453 16.6146 41.6797 15.9219 41.6797C15.2188 41.6797 14.6354 41.9427 14.1719 42.4688C13.7083 42.9948 13.4766 43.7891 13.4766 44.8516ZM21.7891 40.7031H28.3203V49H26.9219V41.8672H23.1953V46C23.1953 46.9635 23.1641 47.599 23.1016 47.9062C23.0391 48.2135 22.8672 48.4818 22.5859 48.7109C22.3047 48.9401 21.8984 49.0547 21.3672 49.0547C21.0391 49.0547 20.6615 49.0339 20.2344 48.9922V47.8203H20.8516C21.1432 47.8203 21.3516 47.7917 21.4766 47.7344C21.6016 47.6719 21.6849 47.5755 21.7266 47.4453C21.7682 47.3151 21.7891 46.8906 21.7891 46.1719V40.7031ZM30.4453 40.7031H31.8516V47.0312L35.75 40.7031H37.2656V49H35.8594V42.7109L31.9609 49H30.4453V40.7031ZM38.625 40.7031H45.3672V41.8672H42.6953V49H41.2969V41.8672H38.625V40.7031ZM46.7109 40.7031H48.1172V47.0312L52.0156 40.7031H53.5312V49H52.125V42.7109L48.2266 49H46.7109V40.7031ZM55.6406 40.7031H57.0469V44.2891C57.4948 44.2891 57.8073 44.2031 57.9844 44.0312C58.1667 43.8594 58.4323 43.3594 58.7812 42.5312C59.0573 41.875 59.2812 41.4427 59.4531 41.2344C59.625 41.026 59.8229 40.8854 60.0469 40.8125C60.2708 40.7396 60.6302 40.7031 61.125 40.7031H61.4062V41.8672L61.0156 41.8594C60.6458 41.8594 60.4089 41.9141 60.3047 42.0234C60.1953 42.138 60.0286 42.4792 59.8047 43.0469C59.5911 43.5885 59.3958 43.9635 59.2188 44.1719C59.0417 44.3802 58.7682 44.5703 58.3984 44.7422C59.0026 44.9036 59.5964 45.4661 60.1797 46.4297L61.7188 49H60.1719L58.6719 46.4297C58.3646 45.9141 58.0964 45.5755 57.8672 45.4141C57.638 45.2474 57.3646 45.1641 57.0469 45.1641V49H55.6406V40.7031ZM68.4219 47.9766C67.901 48.4193 67.3984 48.7318 66.9141 48.9141C66.4349 49.0964 65.9193 49.1875 65.3672 49.1875C64.4557 49.1875 63.7552 48.9661 63.2656 48.5234C62.776 48.0755 62.5312 47.5052 62.5312 46.8125C62.5312 46.4062 62.6224 46.0365 62.8047 45.7031C62.9922 45.3646 63.2344 45.0938 63.5312 44.8906C63.8333 44.6875 64.1719 44.5339 64.5469 44.4297C64.8229 44.3568 65.2396 44.2865 65.7969 44.2188C66.9323 44.0833 67.7682 43.9219 68.3047 43.7344C68.3099 43.5417 68.3125 43.4193 68.3125 43.3672C68.3125 42.7943 68.1797 42.3906 67.9141 42.1562C67.5547 41.8385 67.0208 41.6797 66.3125 41.6797C65.651 41.6797 65.1615 41.7969 64.8438 42.0312C64.5312 42.2604 64.2995 42.6693 64.1484 43.2578L62.7734 43.0703C62.8984 42.4818 63.1042 42.0078 63.3906 41.6484C63.6771 41.2839 64.0911 41.0052 64.6328 40.8125C65.1745 40.6146 65.8021 40.5156 66.5156 40.5156C67.224 40.5156 67.7995 40.599 68.2422 40.7656C68.6849 40.9323 69.0104 41.1432 69.2188 41.3984C69.4271 41.6484 69.5729 41.9661 69.6562 42.3516C69.7031 42.5911 69.7266 43.0234 69.7266 43.6484V45.5234C69.7266 46.8307 69.7552 47.6589 69.8125 48.0078C69.875 48.3516 69.9948 48.6823 70.1719 49H68.7031C68.5573 48.7083 68.4635 48.3672 68.4219 47.9766ZM68.3047 44.8359C67.7943 45.0443 67.0286 45.2214 66.0078 45.3672C65.4297 45.4505 65.0208 45.5443 64.7812 45.6484C64.5417 45.7526 64.3568 45.9062 64.2266 46.1094C64.0964 46.3073 64.0312 46.5286 64.0312 46.7734C64.0312 47.1484 64.1719 47.4609 64.4531 47.7109C64.7396 47.9609 65.1562 48.0859 65.7031 48.0859C66.2448 48.0859 66.7266 47.9688 67.1484 47.7344C67.5703 47.4948 67.8802 47.1693 68.0781 46.7578C68.2292 46.4401 68.3047 45.9714 68.3047 45.3516V44.8359ZM76.3594 40.7031H77.7656V44.2891C78.2135 44.2891 78.526 44.2031 78.7031 44.0312C78.8854 43.8594 79.151 43.3594 79.5 42.5312C79.776 41.875 80 41.4427 80.1719 41.2344C80.3438 41.026 80.5417 40.8854 80.7656 40.8125C80.9896 40.7396 81.349 40.7031 81.8438 40.7031H82.125V41.8672L81.7344 41.8594C81.3646 41.8594 81.1276 41.9141 81.0234 42.0234C80.9141 42.138 80.7474 42.4792 80.5234 43.0469C80.3099 43.5885 80.1146 43.9635 79.9375 44.1719C79.7604 44.3802 79.487 44.5703 79.1172 44.7422C79.7214 44.9036 80.3151 45.4661 80.8984 46.4297L82.4375 49H80.8906L79.3906 46.4297C79.0833 45.9141 78.8151 45.5755 78.5859 45.4141C78.3568 45.2474 78.0833 45.1641 77.7656 45.1641V49H76.3594V40.7031ZM83.0312 44.8516C83.0312 43.3151 83.4583 42.1771 84.3125 41.4375C85.026 40.8229 85.8958 40.5156 86.9219 40.5156C88.0625 40.5156 88.9948 40.8906 89.7188 41.6406C90.4427 42.3854 90.8047 43.4167 90.8047 44.7344C90.8047 45.8021 90.6432 46.6432 90.3203 47.2578C90.0026 47.8672 89.5365 48.3411 88.9219 48.6797C88.3125 49.0182 87.6458 49.1875 86.9219 49.1875C85.7604 49.1875 84.8203 48.8151 84.1016 48.0703C83.388 47.3255 83.0312 46.2526 83.0312 44.8516ZM84.4766 44.8516C84.4766 45.9141 84.7083 46.7109 85.1719 47.2422C85.6354 47.7682 86.2188 48.0312 86.9219 48.0312C87.6198 48.0312 88.2005 47.7656 88.6641 47.2344C89.1276 46.7031 89.3594 45.8932 89.3594 44.8047C89.3594 43.7786 89.125 43.0026 88.6562 42.4766C88.1927 41.9453 87.6146 41.6797 86.9219 41.6797C86.2188 41.6797 85.6354 41.9427 85.1719 42.4688C84.7083 42.9948 84.4766 43.7891 84.4766 44.8516ZM92.4688 40.7031H93.875V44.1562H97.7734V40.7031H99.1797V49H97.7734V45.3203H93.875V49H92.4688V40.7031ZM106.133 37.5469H107.539V41.5078C107.831 41.1745 108.151 40.9271 108.5 40.7656C108.849 40.599 109.224 40.5156 109.625 40.5156C110.609 40.5156 111.388 40.9271 111.961 41.75C112.539 42.5677 112.828 43.599 112.828 44.8438C112.828 46.1406 112.518 47.1901 111.898 47.9922C111.279 48.7891 110.508 49.1875 109.586 49.1875C109.284 49.1875 108.977 49.1406 108.664 49.0469C108.352 48.9531 107.977 48.6979 107.539 48.2812V52.1797H106.133V48.2812C105.852 48.5833 105.539 48.8099 105.195 48.9609C104.857 49.112 104.49 49.1875 104.094 49.1875C103.224 49.1875 102.464 48.8073 101.812 48.0469C101.161 47.2812 100.836 46.1875 100.836 44.7656C100.836 43.5625 101.13 42.5547 101.719 41.7422C102.307 40.9245 103.099 40.5156 104.094 40.5156C104.51 40.5156 104.888 40.599 105.227 40.7656C105.565 40.9271 105.867 41.1745 106.133 41.5078V37.5469ZM107.531 44.8828C107.531 46.1328 107.703 46.974 108.047 47.4062C108.391 47.8333 108.82 48.0469 109.336 48.0469C109.909 48.0469 110.396 47.7839 110.797 47.2578C111.203 46.7266 111.406 45.9036 111.406 44.7891C111.406 43.737 111.219 42.9531 110.844 42.4375C110.474 41.9219 109.997 41.6641 109.414 41.6641C108.789 41.6641 108.318 41.9323 108 42.4688C107.688 43.0052 107.531 43.8099 107.531 44.8828ZM102.266 44.7266C102.266 45.8984 102.461 46.7422 102.852 47.2578C103.247 47.7734 103.737 48.0312 104.32 48.0312C104.93 48.0312 105.385 47.776 105.688 47.2656C105.99 46.75 106.141 45.9792 106.141 44.9531C106.141 43.8594 105.982 43.0391 105.664 42.4922C105.346 41.9453 104.867 41.6719 104.227 41.6719C103.648 41.6719 103.177 41.9401 102.812 42.4766C102.448 43.0078 102.266 43.7578 102.266 44.7266ZM114.477 40.7031H115.883V47.0312L119.781 40.7031H121.297V49H119.891V42.7109L115.992 49H114.477V40.7031ZM124.523 40.7031H130.305V47.8438H131.203V51.3516H130.047V49H123.516V51.3516H122.359V47.8438H123.102C124.091 46.5 124.565 44.1198 124.523 40.7031ZM125.695 41.8672C125.591 44.5599 125.174 46.5521 124.445 47.8438H128.906V41.8672H125.695ZM138.438 46.3281L139.891 46.5078C139.661 47.3568 139.237 48.0156 138.617 48.4844C137.997 48.9531 137.206 49.1875 136.242 49.1875C135.029 49.1875 134.065 48.8151 133.352 48.0703C132.643 47.3203 132.289 46.2708 132.289 44.9219C132.289 43.526 132.648 42.4427 133.367 41.6719C134.086 40.901 135.018 40.5156 136.164 40.5156C137.273 40.5156 138.18 40.8932 138.883 41.6484C139.586 42.4036 139.938 43.4661 139.938 44.8359C139.938 44.9193 139.935 45.0443 139.93 45.2109H133.742C133.794 46.1224 134.052 46.8203 134.516 47.3047C134.979 47.7891 135.557 48.0312 136.25 48.0312C136.766 48.0312 137.206 47.8958 137.57 47.625C137.935 47.3542 138.224 46.9219 138.438 46.3281ZM133.82 44.0547H138.453C138.391 43.3568 138.214 42.8333 137.922 42.4844C137.474 41.9427 136.893 41.6719 136.18 41.6719C135.534 41.6719 134.99 41.888 134.547 42.3203C134.109 42.7526 133.867 43.3307 133.82 44.0547ZM141.672 40.7031H143.078V44.1562H146.977V40.7031H148.383V49H146.977V45.3203H143.078V49H141.672V40.7031ZM150.531 40.7031H151.938V47.8438H155.828V40.7031H157.234V47.8438H158.141V51.3516H156.984V49H150.531V40.7031ZM159.68 40.7031H161.086V47.0312L164.984 40.7031H166.5V49H165.094V42.7109L161.195 49H159.68V40.7031ZM174.031 47.9766C173.51 48.4193 173.008 48.7318 172.523 48.9141C172.044 49.0964 171.529 49.1875 170.977 49.1875C170.065 49.1875 169.365 48.9661 168.875 48.5234C168.385 48.0755 168.141 47.5052 168.141 46.8125C168.141 46.4062 168.232 46.0365 168.414 45.7031C168.602 45.3646 168.844 45.0938 169.141 44.8906C169.443 44.6875 169.781 44.5339 170.156 44.4297C170.432 44.3568 170.849 44.2865 171.406 44.2188C172.542 44.0833 173.378 43.9219 173.914 43.7344C173.919 43.5417 173.922 43.4193 173.922 43.3672C173.922 42.7943 173.789 42.3906 173.523 42.1562C173.164 41.8385 172.63 41.6797 171.922 41.6797C171.26 41.6797 170.771 41.7969 170.453 42.0312C170.141 42.2604 169.909 42.6693 169.758 43.2578L168.383 43.0703C168.508 42.4818 168.714 42.0078 169 41.6484C169.286 41.2839 169.701 41.0052 170.242 40.8125C170.784 40.6146 171.411 40.5156 172.125 40.5156C172.833 40.5156 173.409 40.599 173.852 40.7656C174.294 40.9323 174.62 41.1432 174.828 41.3984C175.036 41.6484 175.182 41.9661 175.266 42.3516C175.312 42.5911 175.336 43.0234 175.336 43.6484V45.5234C175.336 46.8307 175.365 47.6589 175.422 48.0078C175.484 48.3516 175.604 48.6823 175.781 49H174.312C174.167 48.7083 174.073 48.3672 174.031 47.9766ZM173.914 44.8359C173.404 45.0443 172.638 45.2214 171.617 45.3672C171.039 45.4505 170.63 45.5443 170.391 45.6484C170.151 45.7526 169.966 45.9062 169.836 46.1094C169.706 46.3073 169.641 46.5286 169.641 46.7734C169.641 47.1484 169.781 47.4609 170.062 47.7109C170.349 47.9609 170.766 48.0859 171.312 48.0859C171.854 48.0859 172.336 47.9688 172.758 47.7344C173.18 47.4948 173.49 47.1693 173.688 46.7578C173.839 46.4401 173.914 45.9714 173.914 45.3516V44.8359ZM178.211 40.7031H184.742V49H183.344V41.8672H179.617V46C179.617 46.9635 179.586 47.599 179.523 47.9062C179.461 48.2135 179.289 48.4818 179.008 48.7109C178.727 48.9401 178.32 49.0547 177.789 49.0547C177.461 49.0547 177.083 49.0339 176.656 48.9922V47.8203H177.273C177.565 47.8203 177.773 47.7917 177.898 47.7344C178.023 47.6719 178.107 47.5755 178.148 47.4453C178.19 47.3151 178.211 46.8906 178.211 46.1719V40.7031ZM186.844 40.7031H188.25V43.9453H190.031C191.193 43.9453 192.086 44.1719 192.711 44.625C193.341 45.0729 193.656 45.6927 193.656 46.4844C193.656 47.1771 193.393 47.7708 192.867 48.2656C192.346 48.7552 191.51 49 190.359 49H186.844V40.7031ZM188.25 47.8438H189.727C190.617 47.8438 191.253 47.7344 191.633 47.5156C192.013 47.2969 192.203 46.9557 192.203 46.4922C192.203 46.1328 192.062 45.8125 191.781 45.5312C191.5 45.25 190.878 45.1094 189.914 45.1094H188.25V47.8438ZM195.219 40.7031H196.625V44.1562H200.523V40.7031H201.93V49H200.523V45.3203H196.625V49H195.219V40.7031ZM203.531 44.8516C203.531 43.3151 203.958 42.1771 204.812 41.4375C205.526 40.8229 206.396 40.5156 207.422 40.5156C208.562 40.5156 209.495 40.8906 210.219 41.6406C210.943 42.3854 211.305 43.4167 211.305 44.7344C211.305 45.8021 211.143 46.6432 210.82 47.2578C210.503 47.8672 210.036 48.3411 209.422 48.6797C208.812 49.0182 208.146 49.1875 207.422 49.1875C206.26 49.1875 205.32 48.8151 204.602 48.0703C203.888 47.3255 203.531 46.2526 203.531 44.8516ZM204.977 44.8516C204.977 45.9141 205.208 46.7109 205.672 47.2422C206.135 47.7682 206.719 48.0312 207.422 48.0312C208.12 48.0312 208.701 47.7656 209.164 47.2344C209.628 46.7031 209.859 45.8932 209.859 44.8047C209.859 43.7786 209.625 43.0026 209.156 42.4766C208.693 41.9453 208.115 41.6797 207.422 41.6797C206.719 41.6797 206.135 41.9427 205.672 42.4688C205.208 42.9948 204.977 43.7891 204.977 44.8516ZM218.375 45.9609L219.758 46.1406C219.607 47.0938 219.219 47.8411 218.594 48.3828C217.974 48.9193 217.211 49.1875 216.305 49.1875C215.169 49.1875 214.255 48.8177 213.562 48.0781C212.875 47.3333 212.531 46.2682 212.531 44.8828C212.531 43.987 212.68 43.2031 212.977 42.5312C213.273 41.8594 213.724 41.3568 214.328 41.0234C214.938 40.6849 215.599 40.5156 216.312 40.5156C217.214 40.5156 217.951 40.7448 218.523 41.2031C219.096 41.6562 219.464 42.3021 219.625 43.1406L218.258 43.3516C218.128 42.7943 217.896 42.375 217.562 42.0938C217.234 41.8125 216.836 41.6719 216.367 41.6719C215.659 41.6719 215.083 41.9271 214.641 42.4375C214.198 42.9427 213.977 43.7448 213.977 44.8438C213.977 45.9583 214.19 46.7682 214.617 47.2734C215.044 47.7786 215.602 48.0312 216.289 48.0312C216.841 48.0312 217.302 47.862 217.672 47.5234C218.042 47.1849 218.276 46.6641 218.375 45.9609ZM220.203 40.7031H226.945V41.8672H224.273V49H222.875V41.8672H220.203V40.7031ZM228.289 40.7031H229.695V47.0312L233.594 40.7031H235.109V49H233.703V42.7109L229.805 49H228.289V40.7031Z" fill="#121314"/>
</svg>
