<svg width="70" height="52" viewBox="0 0 70 52" fill="none" xmlns="http://www.w3.org/2000/svg">
<path d="M0.773438 9.42188C0.773438 7.52083 1.28385 6.03385 2.30469 4.96094C3.32552 3.88281 4.64323 3.34375 6.25781 3.34375C7.3151 3.34375 8.26823 3.59635 9.11719 4.10156C9.96615 4.60677 10.612 5.3125 11.0547 6.21875C11.5026 7.11979 11.7266 8.14323 11.7266 9.28906C11.7266 10.4505 11.4922 11.4896 11.0234 12.4062C10.5547 13.3229 9.89062 14.0182 9.03125 14.4922C8.17188 14.9609 7.24479 15.1953 6.25 15.1953C5.17188 15.1953 4.20833 14.9349 3.35938 14.4141C2.51042 13.8932 1.86719 13.1823 1.42969 12.2812C0.992188 11.3802 0.773438 10.4271 0.773438 9.42188ZM2.33594 9.44531C2.33594 10.8255 2.70573 11.9141 3.44531 12.7109C4.1901 13.5026 5.1224 13.8984 6.24219 13.8984C7.38281 13.8984 8.32031 13.4974 9.05469 12.6953C9.79427 11.8932 10.1641 10.7552 10.1641 9.28125C10.1641 8.34896 10.0052 7.53646 9.6875 6.84375C9.375 6.14583 8.91406 5.60677 8.30469 5.22656C7.70052 4.84115 7.02083 4.64844 6.26562 4.64844C5.19271 4.64844 4.26823 5.01823 3.49219 5.75781C2.72135 6.49219 2.33594 7.72135 2.33594 9.44531ZM17.9688 6.70312H19.375V10.1562H23.2734V6.70312H24.6797V15H23.2734V11.3203H19.375V15H17.9688V6.70312ZM32.2188 13.9766C31.6979 14.4193 31.1953 14.7318 30.7109 14.9141C30.2318 15.0964 29.7161 15.1875 29.1641 15.1875C28.2526 15.1875 27.5521 14.9661 27.0625 14.5234C26.5729 14.0755 26.3281 13.5052 26.3281 12.8125C26.3281 12.4062 26.4193 12.0365 26.6016 11.7031C26.7891 11.3646 27.0312 11.0938 27.3281 10.8906C27.6302 10.6875 27.9688 10.5339 28.3438 10.4297C28.6198 10.3568 29.0365 10.2865 29.5938 10.2188C30.7292 10.0833 31.5651 9.92188 32.1016 9.73438C32.1068 9.54167 32.1094 9.41927 32.1094 9.36719C32.1094 8.79427 31.9766 8.39062 31.7109 8.15625C31.3516 7.83854 30.8177 7.67969 30.1094 7.67969C29.4479 7.67969 28.9583 7.79688 28.6406 8.03125C28.3281 8.26042 28.0964 8.66927 27.9453 9.25781L26.5703 9.07031C26.6953 8.48177 26.901 8.00781 27.1875 7.64844C27.474 7.28385 27.888 7.00521 28.4297 6.8125C28.9714 6.61458 29.599 6.51562 30.3125 6.51562C31.0208 6.51562 31.5964 6.59896 32.0391 6.76562C32.4818 6.93229 32.8073 7.14323 33.0156 7.39844C33.224 7.64844 33.3698 7.96615 33.4531 8.35156C33.5 8.59115 33.5234 9.02344 33.5234 9.64844V11.5234C33.5234 12.8307 33.5521 13.6589 33.6094 14.0078C33.6719 14.3516 33.7917 14.6823 33.9688 15H32.5C32.3542 14.7083 32.2604 14.3672 32.2188 13.9766ZM32.1016 10.8359C31.5911 11.0443 30.8255 11.2214 29.8047 11.3672C29.2266 11.4505 28.8177 11.5443 28.5781 11.6484C28.3385 11.7526 28.1536 11.9062 28.0234 12.1094C27.8932 12.3073 27.8281 12.5286 27.8281 12.7734C27.8281 13.1484 27.9688 13.4609 28.25 13.7109C28.5365 13.9609 28.9531 14.0859 29.5 14.0859C30.0417 14.0859 30.5234 13.9688 30.9453 13.7344C31.3672 13.4948 31.6771 13.1693 31.875 12.7578C32.026 12.4401 32.1016 11.9714 32.1016 11.3516V10.8359ZM41.125 11.9609L42.5078 12.1406C42.3568 13.0938 41.9688 13.8411 41.3438 14.3828C40.724 14.9193 39.9609 15.1875 39.0547 15.1875C37.9193 15.1875 37.0052 14.8177 36.3125 14.0781C35.625 13.3333 35.2812 12.2682 35.2812 10.8828C35.2812 9.98698 35.4297 9.20312 35.7266 8.53125C36.0234 7.85938 36.474 7.35677 37.0781 7.02344C37.6875 6.6849 38.349 6.51562 39.0625 6.51562C39.9635 6.51562 40.7005 6.74479 41.2734 7.20312C41.8464 7.65625 42.2135 8.30208 42.375 9.14062L41.0078 9.35156C40.8776 8.79427 40.6458 8.375 40.3125 8.09375C39.9844 7.8125 39.5859 7.67188 39.1172 7.67188C38.4089 7.67188 37.8333 7.92708 37.3906 8.4375C36.9479 8.94271 36.7266 9.74479 36.7266 10.8438C36.7266 11.9583 36.9401 12.7682 37.3672 13.2734C37.7943 13.7786 38.3516 14.0312 39.0391 14.0312C39.5911 14.0312 40.0521 13.862 40.4219 13.5234C40.7917 13.1849 41.026 12.6641 41.125 11.9609Z" fill="#121314"/>
<path d="M1.25781 37.5469H2.77344V42.5625C3.46615 42.5625 3.95312 42.4297 4.23438 42.1641C4.51562 41.8932 4.875 41.2474 5.3125 40.2266C5.63021 39.4766 5.89062 38.9479 6.09375 38.6406C6.30208 38.3281 6.59635 38.0677 6.97656 37.8594C7.35677 37.6458 7.77604 37.5391 8.23438 37.5391C8.81771 37.5391 9.125 37.5443 9.15625 37.5547V38.8672C9.10417 38.8672 9.0026 38.8646 8.85156 38.8594C8.6849 38.8542 8.58333 38.8516 8.54688 38.8516C8.0625 38.8516 7.70312 38.9688 7.46875 39.2031C7.22917 39.4375 6.95573 39.9375 6.64844 40.7031C6.26302 41.6719 5.9375 42.2839 5.67188 42.5391C5.40625 42.7891 5.08854 42.9896 4.71875 43.1406C5.45833 43.3438 6.1875 44.026 6.90625 45.1875L9.26562 49H7.38281L5.46875 45.8906C4.94271 45.0312 4.5026 44.4427 4.14844 44.125C3.79427 43.8021 3.33594 43.6406 2.77344 43.6406V49H1.25781V37.5469ZM9.85938 44.8516C9.85938 43.3151 10.2865 42.1771 11.1406 41.4375C11.8542 40.8229 12.724 40.5156 13.75 40.5156C14.8906 40.5156 15.8229 40.8906 16.5469 41.6406C17.2708 42.3854 17.6328 43.4167 17.6328 44.7344C17.6328 45.8021 17.4714 46.6432 17.1484 47.2578C16.8307 47.8672 16.3646 48.3411 15.75 48.6797C15.1406 49.0182 14.474 49.1875 13.75 49.1875C12.5885 49.1875 11.6484 48.8151 10.9297 48.0703C10.2161 47.3255 9.85938 46.2526 9.85938 44.8516ZM11.3047 44.8516C11.3047 45.9141 11.5365 46.7109 12 47.2422C12.4635 47.7682 13.0469 48.0312 13.75 48.0312C14.4479 48.0312 15.0286 47.7656 15.4922 47.2344C15.9557 46.7031 16.1875 45.8932 16.1875 44.8047C16.1875 43.7786 15.9531 43.0026 15.4844 42.4766C15.0208 41.9453 14.4427 41.6797 13.75 41.6797C13.0469 41.6797 12.4635 41.9427 12 42.4688C11.5365 42.9948 11.3047 43.7891 11.3047 44.8516ZM19.2969 40.7031H20.7031V44.1562H24.6016V40.7031H26.0078V49H24.6016V45.3203H20.7031V49H19.2969V40.7031ZM27.375 40.7031H34.1172V41.8672H31.4453V49H30.0469V41.8672H27.375V40.7031ZM40.6875 47.9766C40.1667 48.4193 39.6641 48.7318 39.1797 48.9141C38.7005 49.0964 38.1849 49.1875 37.6328 49.1875C36.7214 49.1875 36.0208 48.9661 35.5312 48.5234C35.0417 48.0755 34.7969 47.5052 34.7969 46.8125C34.7969 46.4062 34.888 46.0365 35.0703 45.7031C35.2578 45.3646 35.5 45.0938 35.7969 44.8906C36.099 44.6875 36.4375 44.5339 36.8125 44.4297C37.0885 44.3568 37.5052 44.2865 38.0625 44.2188C39.1979 44.0833 40.0339 43.9219 40.5703 43.7344C40.5755 43.5417 40.5781 43.4193 40.5781 43.3672C40.5781 42.7943 40.4453 42.3906 40.1797 42.1562C39.8203 41.8385 39.2865 41.6797 38.5781 41.6797C37.9167 41.6797 37.4271 41.7969 37.1094 42.0312C36.7969 42.2604 36.5651 42.6693 36.4141 43.2578L35.0391 43.0703C35.1641 42.4818 35.3698 42.0078 35.6562 41.6484C35.9427 41.2839 36.3568 41.0052 36.8984 40.8125C37.4401 40.6146 38.0677 40.5156 38.7812 40.5156C39.4896 40.5156 40.0651 40.599 40.5078 40.7656C40.9505 40.9323 41.276 41.1432 41.4844 41.3984C41.6927 41.6484 41.8385 41.9661 41.9219 42.3516C41.9688 42.5911 41.9922 43.0234 41.9922 43.6484V45.5234C41.9922 46.8307 42.0208 47.6589 42.0781 48.0078C42.1406 48.3516 42.2604 48.6823 42.4375 49H40.9688C40.8229 48.7083 40.7292 48.3672 40.6875 47.9766ZM40.5703 44.8359C40.0599 45.0443 39.2943 45.2214 38.2734 45.3672C37.6953 45.4505 37.2865 45.5443 37.0469 45.6484C36.8073 45.7526 36.6224 45.9062 36.4922 46.1094C36.362 46.3073 36.2969 46.5286 36.2969 46.7734C36.2969 47.1484 36.4375 47.4609 36.7188 47.7109C37.0052 47.9609 37.4219 48.0859 37.9688 48.0859C38.5104 48.0859 38.9922 47.9688 39.4141 47.7344C39.8359 47.4948 40.1458 47.1693 40.3438 46.7578C40.4948 46.4401 40.5703 45.9714 40.5703 45.3516V44.8359ZM44.1719 40.7031H45.5781V44.2891C46.026 44.2891 46.3385 44.2031 46.5156 44.0312C46.6979 43.8594 46.9635 43.3594 47.3125 42.5312C47.5885 41.875 47.8125 41.4427 47.9844 41.2344C48.1562 41.026 48.3542 40.8854 48.5781 40.8125C48.8021 40.7396 49.1615 40.7031 49.6562 40.7031H49.9375V41.8672L49.5469 41.8594C49.1771 41.8594 48.9401 41.9141 48.8359 42.0234C48.7266 42.138 48.5599 42.4792 48.3359 43.0469C48.1224 43.5885 47.9271 43.9635 47.75 44.1719C47.5729 44.3802 47.2995 44.5703 46.9297 44.7422C47.5339 44.9036 48.1276 45.4661 48.7109 46.4297L50.25 49H48.7031L47.2031 46.4297C46.8958 45.9141 46.6276 45.5755 46.3984 45.4141C46.1693 45.2474 45.8958 45.1641 45.5781 45.1641V49H44.1719V40.7031ZM50.6094 40.7031H57.3516V41.8672H54.6797V49H53.2812V41.8672H50.6094V40.7031ZM66.5938 40.7031H68V49H66.5938V40.7031ZM58.7266 40.7031H60.1328V43.9453H61.9141C63.0755 43.9453 63.9688 44.1719 64.5938 44.625C65.224 45.0729 65.5391 45.6927 65.5391 46.4844C65.5391 47.1771 65.276 47.7708 64.75 48.2656C64.2292 48.7552 63.3932 49 62.2422 49H58.7266V40.7031ZM60.1328 47.8438H61.6094C62.5 47.8438 63.1354 47.7344 63.5156 47.5156C63.8958 47.2969 64.0859 46.9557 64.0859 46.4922C64.0859 46.1328 63.9453 45.8125 63.6641 45.5312C63.3828 45.25 62.7604 45.1094 61.7969 45.1094H60.1328V47.8438Z" fill="#121314"/>
</svg>
