<svg width="144" height="62" viewBox="0 0 144 62" fill="none" xmlns="http://www.w3.org/2000/svg">
<path d="M9.40625 12.9844L10.9219 13.3672C10.6042 14.612 10.0312 15.5625 9.20312 16.2188C8.38021 16.8698 7.3724 17.1953 6.17969 17.1953C4.94531 17.1953 3.9401 16.9453 3.16406 16.4453C2.39323 15.9401 1.80469 15.2109 1.39844 14.2578C0.997396 13.3047 0.796875 12.2812 0.796875 11.1875C0.796875 9.99479 1.02344 8.95573 1.47656 8.07031C1.9349 7.17969 2.58333 6.50521 3.42188 6.04688C4.26562 5.58333 5.19271 5.35156 6.20312 5.35156C7.34896 5.35156 8.3125 5.64323 9.09375 6.22656C9.875 6.8099 10.4193 7.63021 10.7266 8.6875L9.23438 9.03906C8.96875 8.20573 8.58333 7.59896 8.07812 7.21875C7.57292 6.83854 6.9375 6.64844 6.17188 6.64844C5.29167 6.64844 4.55469 6.85938 3.96094 7.28125C3.3724 7.70312 2.95833 8.27083 2.71875 8.98438C2.47917 9.69271 2.35938 10.4245 2.35938 11.1797C2.35938 12.1536 2.5 13.0052 2.78125 13.7344C3.06771 14.4583 3.51042 15 4.10938 15.3594C4.70833 15.7188 5.35677 15.8984 6.05469 15.8984C6.90365 15.8984 7.6224 15.6536 8.21094 15.1641C8.79948 14.6745 9.19792 13.9479 9.40625 12.9844ZM12.625 8.70312H19.1719V17H17.7656V9.86719H14.0312V17H12.625V8.70312ZM20.7656 12.8516C20.7656 11.3151 21.1927 10.1771 22.0469 9.4375C22.7604 8.82292 23.6302 8.51562 24.6562 8.51562C25.7969 8.51562 26.7292 8.89062 27.4531 9.64062C28.1771 10.3854 28.5391 11.4167 28.5391 12.7344C28.5391 13.8021 28.3776 14.6432 28.0547 15.2578C27.737 15.8672 27.2708 16.3411 26.6562 16.6797C26.0469 17.0182 25.3802 17.1875 24.6562 17.1875C23.4948 17.1875 22.5547 16.8151 21.8359 16.0703C21.1224 15.3255 20.7656 14.2526 20.7656 12.8516ZM22.2109 12.8516C22.2109 13.9141 22.4427 14.7109 22.9062 15.2422C23.3698 15.7682 23.9531 16.0312 24.6562 16.0312C25.3542 16.0312 25.9349 15.7656 26.3984 15.2344C26.862 14.7031 27.0938 13.8932 27.0938 12.8047C27.0938 11.7786 26.8594 11.0026 26.3906 10.4766C25.9271 9.94531 25.349 9.67969 24.6562 9.67969C23.9531 9.67969 23.3698 9.94271 22.9062 10.4688C22.4427 10.9948 22.2109 11.7891 22.2109 12.8516ZM35.6094 13.9609L36.9922 14.1406C36.8411 15.0938 36.4531 15.8411 35.8281 16.3828C35.2083 16.9193 34.4453 17.1875 33.5391 17.1875C32.4036 17.1875 31.4896 16.8177 30.7969 16.0781C30.1094 15.3333 29.7656 14.2682 29.7656 12.8828C29.7656 11.987 29.9141 11.2031 30.2109 10.5312C30.5078 9.85938 30.9583 9.35677 31.5625 9.02344C32.1719 8.6849 32.8333 8.51562 33.5469 8.51562C34.4479 8.51562 35.1849 8.74479 35.7578 9.20312C36.3307 9.65625 36.6979 10.3021 36.8594 11.1406L35.4922 11.3516C35.362 10.7943 35.1302 10.375 34.7969 10.0938C34.4688 9.8125 34.0703 9.67188 33.6016 9.67188C32.8932 9.67188 32.3177 9.92708 31.875 10.4375C31.4323 10.9427 31.2109 11.7448 31.2109 12.8438C31.2109 13.9583 31.4245 14.7682 31.8516 15.2734C32.2786 15.7786 32.8359 16.0312 33.5234 16.0312C34.0755 16.0312 34.5365 15.862 34.9062 15.5234C35.276 15.1849 35.5104 14.6641 35.6094 13.9609ZM37.8594 12.8516C37.8594 11.3151 38.2865 10.1771 39.1406 9.4375C39.8542 8.82292 40.724 8.51562 41.75 8.51562C42.8906 8.51562 43.8229 8.89062 44.5469 9.64062C45.2708 10.3854 45.6328 11.4167 45.6328 12.7344C45.6328 13.8021 45.4714 14.6432 45.1484 15.2578C44.8307 15.8672 44.3646 16.3411 43.75 16.6797C43.1406 17.0182 42.474 17.1875 41.75 17.1875C40.5885 17.1875 39.6484 16.8151 38.9297 16.0703C38.2161 15.3255 37.8594 14.2526 37.8594 12.8516ZM39.3047 12.8516C39.3047 13.9141 39.5365 14.7109 40 15.2422C40.4635 15.7682 41.0469 16.0312 41.75 16.0312C42.4479 16.0312 43.0286 15.7656 43.4922 15.2344C43.9557 14.7031 44.1875 13.8932 44.1875 12.8047C44.1875 11.7786 43.9531 11.0026 43.4844 10.4766C43.0208 9.94531 42.4427 9.67969 41.75 9.67969C41.0469 9.67969 40.4635 9.94271 40 10.4688C39.5365 10.9948 39.3047 11.7891 39.3047 12.8516ZM53.3672 5.27344L54.6094 5.28906C54.5521 5.84635 54.4271 6.23438 54.2344 6.45312C54.0469 6.67188 53.8021 6.8125 53.5 6.875C53.2031 6.9375 52.6172 6.96875 51.7422 6.96875C50.5807 6.96875 49.7891 7.08073 49.3672 7.30469C48.9453 7.52865 48.6406 7.88802 48.4531 8.38281C48.2708 8.8724 48.1693 9.50521 48.1484 10.2812C48.5026 9.75521 48.9167 9.36198 49.3906 9.10156C49.8646 8.83594 50.3984 8.70312 50.9922 8.70312C52.0807 8.70312 52.9818 9.07812 53.6953 9.82812C54.4089 10.5729 54.7656 11.5833 54.7656 12.8594C54.7656 13.8281 54.5859 14.6224 54.2266 15.2422C53.8672 15.862 53.4401 16.3411 52.9453 16.6797C52.4557 17.0182 51.7865 17.1875 50.9375 17.1875C49.9531 17.1875 49.1875 16.9635 48.6406 16.5156C48.0938 16.0625 47.6745 15.4844 47.3828 14.7812C47.0911 14.0781 46.9453 12.8542 46.9453 11.1094C46.9453 8.91667 47.3151 7.4401 48.0547 6.67969C48.7995 5.91927 49.9427 5.53906 51.4844 5.53906C52.4427 5.53906 52.987 5.52344 53.1172 5.49219C53.2474 5.46094 53.3307 5.38802 53.3672 5.27344ZM53.2969 12.8203C53.2969 11.9557 53.0911 11.2474 52.6797 10.6953C52.2734 10.1432 51.6979 9.86719 50.9531 9.86719C50.1771 9.86719 49.5781 10.1589 49.1562 10.7422C48.7344 11.3255 48.5234 12.1042 48.5234 13.0781C48.5234 14.0417 48.7552 14.7786 49.2188 15.2891C49.6875 15.7995 50.263 16.0547 50.9453 16.0547C51.6432 16.0547 52.2083 15.7604 52.6406 15.1719C53.0781 14.5781 53.2969 13.7943 53.2969 12.8203ZM64.3594 8.70312H65.7656V17H64.3594V8.70312ZM56.4922 8.70312H57.8984V11.9453H59.6797C60.8411 11.9453 61.7344 12.1719 62.3594 12.625C62.9896 13.0729 63.3047 13.6927 63.3047 14.4844C63.3047 15.1771 63.0417 15.7708 62.5156 16.2656C61.9948 16.7552 61.1589 17 60.0078 17H56.4922V8.70312ZM57.8984 15.8438H59.375C60.2656 15.8438 60.901 15.7344 61.2812 15.5156C61.6615 15.2969 61.8516 14.9557 61.8516 14.4922C61.8516 14.1328 61.7109 13.8125 61.4297 13.5312C61.1484 13.25 60.526 13.1094 59.5625 13.1094H57.8984V15.8438ZM71.8906 12.8516C71.8906 11.3151 72.3177 10.1771 73.1719 9.4375C73.8854 8.82292 74.7552 8.51562 75.7812 8.51562C76.9219 8.51562 77.8542 8.89062 78.5781 9.64062C79.3021 10.3854 79.6641 11.4167 79.6641 12.7344C79.6641 13.8021 79.5026 14.6432 79.1797 15.2578C78.862 15.8672 78.3958 16.3411 77.7812 16.6797C77.1719 17.0182 76.5052 17.1875 75.7812 17.1875C74.6198 17.1875 73.6797 16.8151 72.9609 16.0703C72.2474 15.3255 71.8906 14.2526 71.8906 12.8516ZM73.3359 12.8516C73.3359 13.9141 73.5677 14.7109 74.0312 15.2422C74.4948 15.7682 75.0781 16.0312 75.7812 16.0312C76.4792 16.0312 77.0599 15.7656 77.5234 15.2344C77.987 14.7031 78.2188 13.8932 78.2188 12.8047C78.2188 11.7786 77.9844 11.0026 77.5156 10.4766C77.0521 9.94531 76.474 9.67969 75.7812 9.67969C75.0781 9.67969 74.4948 9.94271 74.0312 10.4688C73.5677 10.9948 73.3359 11.7891 73.3359 12.8516ZM81.3281 8.70312H87.875V17H86.4688V9.86719H82.7344V17H81.3281V8.70312ZM90.6797 8.70312H97.2109V17H95.8125V9.86719H92.0859V14C92.0859 14.9635 92.0547 15.599 91.9922 15.9062C91.9297 16.2135 91.7578 16.4818 91.4766 16.7109C91.1953 16.9401 90.7891 17.0547 90.2578 17.0547C89.9297 17.0547 89.5521 17.0339 89.125 16.9922V15.8203H89.7422C90.0339 15.8203 90.2422 15.7917 90.3672 15.7344C90.4922 15.6719 90.5755 15.5755 90.6172 15.4453C90.6589 15.3151 90.6797 14.8906 90.6797 14.1719V8.70312ZM104.75 15.9766C104.229 16.4193 103.727 16.7318 103.242 16.9141C102.763 17.0964 102.247 17.1875 101.695 17.1875C100.784 17.1875 100.083 16.9661 99.5938 16.5234C99.1042 16.0755 98.8594 15.5052 98.8594 14.8125C98.8594 14.4062 98.9505 14.0365 99.1328 13.7031C99.3203 13.3646 99.5625 13.0938 99.8594 12.8906C100.161 12.6875 100.5 12.5339 100.875 12.4297C101.151 12.3568 101.568 12.2865 102.125 12.2188C103.26 12.0833 104.096 11.9219 104.633 11.7344C104.638 11.5417 104.641 11.4193 104.641 11.3672C104.641 10.7943 104.508 10.3906 104.242 10.1562C103.883 9.83854 103.349 9.67969 102.641 9.67969C101.979 9.67969 101.49 9.79688 101.172 10.0312C100.859 10.2604 100.628 10.6693 100.477 11.2578L99.1016 11.0703C99.2266 10.4818 99.4323 10.0078 99.7188 9.64844C100.005 9.28385 100.419 9.00521 100.961 8.8125C101.503 8.61458 102.13 8.51562 102.844 8.51562C103.552 8.51562 104.128 8.59896 104.57 8.76562C105.013 8.93229 105.339 9.14323 105.547 9.39844C105.755 9.64844 105.901 9.96615 105.984 10.3516C106.031 10.5911 106.055 11.0234 106.055 11.6484V13.5234C106.055 14.8307 106.083 15.6589 106.141 16.0078C106.203 16.3516 106.323 16.6823 106.5 17H105.031C104.885 16.7083 104.792 16.3672 104.75 15.9766ZM104.633 12.8359C104.122 13.0443 103.357 13.2214 102.336 13.3672C101.758 13.4505 101.349 13.5443 101.109 13.6484C100.87 13.7526 100.685 13.9062 100.555 14.1094C100.424 14.3073 100.359 14.5286 100.359 14.7734C100.359 15.1484 100.5 15.4609 100.781 15.7109C101.068 15.9609 101.484 16.0859 102.031 16.0859C102.573 16.0859 103.055 15.9688 103.477 15.7344C103.898 15.4948 104.208 15.1693 104.406 14.7578C104.557 14.4401 104.633 13.9714 104.633 13.3516V12.8359ZM107.125 8.70312H113.867V9.86719H111.195V17H109.797V9.86719H107.125V8.70312ZM123.109 8.70312H124.516V17H123.109V8.70312ZM115.242 8.70312H116.648V11.9453H118.43C119.591 11.9453 120.484 12.1719 121.109 12.625C121.74 13.0729 122.055 13.6927 122.055 14.4844C122.055 15.1771 121.792 15.7708 121.266 16.2656C120.745 16.7552 119.909 17 118.758 17H115.242V8.70312ZM116.648 15.8438H118.125C119.016 15.8438 119.651 15.7344 120.031 15.5156C120.411 15.2969 120.602 14.9557 120.602 14.4922C120.602 14.1328 120.461 13.8125 120.18 13.5312C119.898 13.25 119.276 13.1094 118.312 13.1094H116.648V15.8438Z" fill="#121314"/>
<path d="M0.078125 45.5469H1.60938L5.34375 52.5625L8.60938 45.5469H10.1172L5.82031 54.4531C5.28385 55.5677 4.84375 56.2969 4.5 56.6406C4.15625 56.9844 3.66406 57.1562 3.02344 57.1562C2.63281 57.1562 2.15365 57.0651 1.58594 56.8828V55.5859C1.99219 55.8203 2.42188 55.9375 2.875 55.9375C3.24479 55.9375 3.5625 55.8203 3.82812 55.5859C4.09896 55.3464 4.39583 54.8047 4.71875 53.9609L0.078125 45.5469ZM15.5625 53.9609L16.9453 54.1406C16.7943 55.0938 16.4062 55.8411 15.7812 56.3828C15.1615 56.9193 14.3984 57.1875 13.4922 57.1875C12.3568 57.1875 11.4427 56.8177 10.75 56.0781C10.0625 55.3333 9.71875 54.2682 9.71875 52.8828C9.71875 51.987 9.86719 51.2031 10.1641 50.5312C10.4609 49.8594 10.9115 49.3568 11.5156 49.0234C12.125 48.6849 12.7865 48.5156 13.5 48.5156C14.401 48.5156 15.138 48.7448 15.7109 49.2031C16.2839 49.6562 16.651 50.3021 16.8125 51.1406L15.4453 51.3516C15.3151 50.7943 15.0833 50.375 14.75 50.0938C14.4219 49.8125 14.0234 49.6719 13.5547 49.6719C12.8464 49.6719 12.2708 49.9271 11.8281 50.4375C11.3854 50.9427 11.1641 51.7448 11.1641 52.8438C11.1641 53.9583 11.3776 54.7682 11.8047 55.2734C12.2318 55.7786 12.7891 56.0312 13.4766 56.0312C14.0286 56.0312 14.4896 55.862 14.8594 55.5234C15.2292 55.1849 15.4635 54.6641 15.5625 53.9609ZM18.8359 48.7031H25.3672V57H23.9688V49.8672H20.2422V54C20.2422 54.9635 20.2109 55.599 20.1484 55.9062C20.0859 56.2135 19.9141 56.4818 19.6328 56.7109C19.3516 56.9401 18.9453 57.0547 18.4141 57.0547C18.0859 57.0547 17.7083 57.0339 17.2812 56.9922V55.8203H17.8984C18.1901 55.8203 18.3984 55.7917 18.5234 55.7344C18.6484 55.6719 18.7318 55.5755 18.7734 55.4453C18.8151 55.3151 18.8359 54.8906 18.8359 54.1719V48.7031ZM27.1562 52.8516C27.1562 51.3151 27.5833 50.1771 28.4375 49.4375C29.151 48.8229 30.0208 48.5156 31.0469 48.5156C32.1875 48.5156 33.1198 48.8906 33.8438 49.6406C34.5677 50.3854 34.9297 51.4167 34.9297 52.7344C34.9297 53.8021 34.7682 54.6432 34.4453 55.2578C34.1276 55.8672 33.6615 56.3411 33.0469 56.6797C32.4375 57.0182 31.7708 57.1875 31.0469 57.1875C29.8854 57.1875 28.9453 56.8151 28.2266 56.0703C27.513 55.3255 27.1562 54.2526 27.1562 52.8516ZM28.6016 52.8516C28.6016 53.9141 28.8333 54.7109 29.2969 55.2422C29.7604 55.7682 30.3438 56.0312 31.0469 56.0312C31.7448 56.0312 32.3255 55.7656 32.7891 55.2344C33.2526 54.7031 33.4844 53.8932 33.4844 52.8047C33.4844 51.7786 33.25 51.0026 32.7812 50.4766C32.3177 49.9453 31.7396 49.6797 31.0469 49.6797C30.3438 49.6797 29.7604 49.9427 29.2969 50.4688C28.8333 50.9948 28.6016 51.7891 28.6016 52.8516ZM36.5938 48.7031H39.8359C40.6328 48.7031 41.224 48.7708 41.6094 48.9062C42 49.0365 42.3333 49.2786 42.6094 49.6328C42.8906 49.987 43.0312 50.4115 43.0312 50.9062C43.0312 51.3021 42.9479 51.6484 42.7812 51.9453C42.6198 52.237 42.375 52.4818 42.0469 52.6797C42.4375 52.8099 42.7604 53.0547 43.0156 53.4141C43.276 53.7682 43.4062 54.1901 43.4062 54.6797C43.3542 55.4661 43.0729 56.0495 42.5625 56.4297C42.0521 56.8099 41.3099 57 40.3359 57H36.5938V48.7031ZM38 52.1953H39.5C40.099 52.1953 40.5104 52.1641 40.7344 52.1016C40.9583 52.0391 41.1589 51.9141 41.3359 51.7266C41.513 51.5339 41.6016 51.3047 41.6016 51.0391C41.6016 50.6016 41.4453 50.2969 41.1328 50.125C40.8255 49.9531 40.2969 49.8672 39.5469 49.8672H38V52.1953ZM38 55.8438H39.8516C40.6484 55.8438 41.1953 55.7526 41.4922 55.5703C41.7891 55.3828 41.9453 55.0625 41.9609 54.6094C41.9609 54.3438 41.875 54.099 41.7031 53.875C41.5312 53.6458 41.3073 53.5026 41.0312 53.4453C40.7552 53.3828 40.3125 53.3516 39.7031 53.3516H38V55.8438ZM45.0859 48.7031H46.4922V55.0312L50.3906 48.7031H51.9062V57H50.5V50.7109L46.6016 57H45.0859V48.7031ZM60.5547 48.7031V57H59.1562V53.7656H58.3438C57.849 53.7656 57.4792 53.8307 57.2344 53.9609C56.9948 54.0859 56.6432 54.4948 56.1797 55.1875L54.9531 57H53.2109L54.7266 54.7656C55.1901 54.0833 55.651 53.6979 56.1094 53.6094C55.3073 53.5 54.7109 53.2109 54.3203 52.7422C53.9349 52.2734 53.7422 51.7344 53.7422 51.125C53.7422 50.4062 53.9948 49.8229 54.5 49.375C55.0104 48.9271 55.7474 48.7031 56.7109 48.7031H60.5547ZM59.1562 49.8672H57.1562C56.3177 49.8672 55.776 49.9974 55.5312 50.2578C55.2917 50.5182 55.1719 50.8229 55.1719 51.1719C55.1719 51.6667 55.349 52.0312 55.7031 52.2656C56.0625 52.4948 56.6953 52.6094 57.6016 52.6094H59.1562V49.8672ZM68.2578 48.7031H74.0391V55.8438H74.9375V59.3516H73.7812V57H67.25V59.3516H66.0938V55.8438H66.8359C67.8255 54.5 68.2995 52.1198 68.2578 48.7031ZM69.4297 49.8672C69.3255 52.5599 68.9089 54.5521 68.1797 55.8438H72.6406V49.8672H69.4297ZM75.9688 52.8516C75.9688 51.3151 76.3958 50.1771 77.25 49.4375C77.9635 48.8229 78.8333 48.5156 79.8594 48.5156C81 48.5156 81.9323 48.8906 82.6562 49.6406C83.3802 50.3854 83.7422 51.4167 83.7422 52.7344C83.7422 53.8021 83.5807 54.6432 83.2578 55.2578C82.9401 55.8672 82.474 56.3411 81.8594 56.6797C81.25 57.0182 80.5833 57.1875 79.8594 57.1875C78.6979 57.1875 77.7578 56.8151 77.0391 56.0703C76.3255 55.3255 75.9688 54.2526 75.9688 52.8516ZM77.4141 52.8516C77.4141 53.9141 77.6458 54.7109 78.1094 55.2422C78.5729 55.7682 79.1562 56.0312 79.8594 56.0312C80.5573 56.0312 81.138 55.7656 81.6016 55.2344C82.0651 54.7031 82.2969 53.8932 82.2969 52.8047C82.2969 51.7786 82.0625 51.0026 81.5938 50.4766C81.1302 49.9453 80.5521 49.6797 79.8594 49.6797C79.1562 49.6797 78.5729 49.9427 78.1094 50.4688C77.6458 50.9948 77.4141 51.7891 77.4141 52.8516ZM90.8125 53.9609L92.1953 54.1406C92.0443 55.0938 91.6562 55.8411 91.0312 56.3828C90.4115 56.9193 89.6484 57.1875 88.7422 57.1875C87.6068 57.1875 86.6927 56.8177 86 56.0781C85.3125 55.3333 84.9688 54.2682 84.9688 52.8828C84.9688 51.987 85.1172 51.2031 85.4141 50.5312C85.7109 49.8594 86.1615 49.3568 86.7656 49.0234C87.375 48.6849 88.0365 48.5156 88.75 48.5156C89.651 48.5156 90.388 48.7448 90.9609 49.2031C91.5339 49.6562 91.901 50.3021 92.0625 51.1406L90.6953 51.3516C90.5651 50.7943 90.3333 50.375 90 50.0938C89.6719 49.8125 89.2734 49.6719 88.8047 49.6719C88.0964 49.6719 87.5208 49.9271 87.0781 50.4375C86.6354 50.9427 86.4141 51.7448 86.4141 52.8438C86.4141 53.9583 86.6276 54.7682 87.0547 55.2734C87.4818 55.7786 88.0391 56.0312 88.7266 56.0312C89.2786 56.0312 89.7396 55.862 90.1094 55.5234C90.4792 55.1849 90.7135 54.6641 90.8125 53.9609ZM92.6406 48.7031H99.3828V49.8672H96.7109V57H95.3125V49.8672H92.6406V48.7031ZM105.953 55.9766C105.432 56.4193 104.93 56.7318 104.445 56.9141C103.966 57.0964 103.451 57.1875 102.898 57.1875C101.987 57.1875 101.286 56.9661 100.797 56.5234C100.307 56.0755 100.062 55.5052 100.062 54.8125C100.062 54.4062 100.154 54.0365 100.336 53.7031C100.523 53.3646 100.766 53.0938 101.062 52.8906C101.365 52.6875 101.703 52.5339 102.078 52.4297C102.354 52.3568 102.771 52.2865 103.328 52.2188C104.464 52.0833 105.299 51.9219 105.836 51.7344C105.841 51.5417 105.844 51.4193 105.844 51.3672C105.844 50.7943 105.711 50.3906 105.445 50.1562C105.086 49.8385 104.552 49.6797 103.844 49.6797C103.182 49.6797 102.693 49.7969 102.375 50.0312C102.062 50.2604 101.831 50.6693 101.68 51.2578L100.305 51.0703C100.43 50.4818 100.635 50.0078 100.922 49.6484C101.208 49.2839 101.622 49.0052 102.164 48.8125C102.706 48.6146 103.333 48.5156 104.047 48.5156C104.755 48.5156 105.331 48.599 105.773 48.7656C106.216 48.9323 106.542 49.1432 106.75 49.3984C106.958 49.6484 107.104 49.9661 107.188 50.3516C107.234 50.5911 107.258 51.0234 107.258 51.6484V53.5234C107.258 54.8307 107.286 55.6589 107.344 56.0078C107.406 56.3516 107.526 56.6823 107.703 57H106.234C106.089 56.7083 105.995 56.3672 105.953 55.9766ZM105.836 52.8359C105.326 53.0443 104.56 53.2214 103.539 53.3672C102.961 53.4505 102.552 53.5443 102.312 53.6484C102.073 53.7526 101.888 53.9062 101.758 54.1094C101.628 54.3073 101.562 54.5286 101.562 54.7734C101.562 55.1484 101.703 55.4609 101.984 55.7109C102.271 55.9609 102.688 56.0859 103.234 56.0859C103.776 56.0859 104.258 55.9688 104.68 55.7344C105.102 55.4948 105.411 55.1693 105.609 54.7578C105.76 54.4401 105.836 53.9714 105.836 53.3516V52.8359ZM109.453 48.7031H112.695C113.492 48.7031 114.083 48.7708 114.469 48.9062C114.859 49.0365 115.193 49.2786 115.469 49.6328C115.75 49.987 115.891 50.4115 115.891 50.9062C115.891 51.3021 115.807 51.6484 115.641 51.9453C115.479 52.237 115.234 52.4818 114.906 52.6797C115.297 52.8099 115.62 53.0547 115.875 53.4141C116.135 53.7682 116.266 54.1901 116.266 54.6797C116.214 55.4661 115.932 56.0495 115.422 56.4297C114.911 56.8099 114.169 57 113.195 57H109.453V48.7031ZM110.859 52.1953H112.359C112.958 52.1953 113.37 52.1641 113.594 52.1016C113.818 52.0391 114.018 51.9141 114.195 51.7266C114.372 51.5339 114.461 51.3047 114.461 51.0391C114.461 50.6016 114.305 50.2969 113.992 50.125C113.685 49.9531 113.156 49.8672 112.406 49.8672H110.859V52.1953ZM110.859 55.8438H112.711C113.508 55.8438 114.055 55.7526 114.352 55.5703C114.648 55.3828 114.805 55.0625 114.82 54.6094C114.82 54.3438 114.734 54.099 114.562 53.875C114.391 53.6458 114.167 53.5026 113.891 53.4453C113.615 53.3828 113.172 53.3516 112.562 53.3516H110.859V55.8438ZM117.938 48.7031H119.344V52.2891C119.792 52.2891 120.104 52.2031 120.281 52.0312C120.464 51.8594 120.729 51.3594 121.078 50.5312C121.354 49.875 121.578 49.4427 121.75 49.2344C121.922 49.026 122.12 48.8854 122.344 48.8125C122.568 48.7396 122.927 48.7031 123.422 48.7031H123.703V49.8672L123.312 49.8594C122.943 49.8594 122.706 49.9141 122.602 50.0234C122.492 50.138 122.326 50.4792 122.102 51.0469C121.888 51.5885 121.693 51.9635 121.516 52.1719C121.339 52.3802 121.065 52.5703 120.695 52.7422C121.299 52.9036 121.893 53.4661 122.477 54.4297L124.016 57H122.469L120.969 54.4297C120.661 53.9141 120.393 53.5755 120.164 53.4141C119.935 53.2474 119.661 53.1641 119.344 53.1641V57H117.938V48.7031ZM124.945 48.7031H126.352V55.0312L130.25 48.7031H131.766V57H130.359V50.7109L126.461 57H124.945V48.7031Z" fill="#121314"/>
</svg>
