<svg width="162" height="14" viewBox="0 0 162 14" fill="none" xmlns="http://www.w3.org/2000/svg">
<path d="M16.5166 6.9707C16.5166 8.00781 16.3262 8.9248 15.9453 9.72168C15.5645 10.5127 15.0195 11.1748 14.3105 11.708C13.6016 12.2412 12.7402 12.6455 11.7266 12.9209C10.7188 13.1904 9.58496 13.3252 8.3252 13.3252C7.06543 13.3252 5.92578 13.1904 4.90625 12.9209C3.89258 12.6455 3.02832 12.2412 2.31348 11.708C1.59863 11.1748 1.04785 10.5127 0.661133 9.72168C0.274414 8.9248 0.0810547 8.00781 0.0810547 6.9707C0.0810547 5.93359 0.274414 5.01953 0.661133 4.22852C1.04785 3.43164 1.59863 2.7666 2.31348 2.2334C3.02832 1.7002 3.89258 1.29883 4.90625 1.0293C5.92578 0.753906 7.06543 0.616211 8.3252 0.616211C9.58496 0.616211 10.7188 0.753906 11.7266 1.0293C12.7402 1.29883 13.6016 1.7002 14.3105 2.2334C15.0195 2.7666 15.5645 3.43164 15.9453 4.22852C16.3262 5.01953 16.5166 5.93359 16.5166 6.9707ZM13.2207 6.9707C13.2207 6.51953 13.1475 6.07129 13.001 5.62598C12.8604 5.1748 12.6055 4.77051 12.2363 4.41309C11.873 4.05566 11.375 3.76562 10.7422 3.54297C10.1094 3.32031 9.30371 3.20898 8.3252 3.20898C7.66895 3.20898 7.0918 3.26172 6.59375 3.36719C6.0957 3.4668 5.66504 3.60742 5.30176 3.78906C4.93848 3.9707 4.63379 4.18457 4.3877 4.43066C4.1416 4.6709 3.94531 4.93164 3.79883 5.21289C3.65234 5.48828 3.54688 5.77832 3.48242 6.08301C3.42383 6.38184 3.39453 6.67773 3.39453 6.9707C3.39453 7.26953 3.42383 7.57129 3.48242 7.87598C3.54688 8.18066 3.65234 8.47363 3.79883 8.75488C3.94531 9.03027 4.1416 9.28809 4.3877 9.52832C4.63379 9.76855 4.93848 9.97949 5.30176 10.1611C5.66504 10.3369 6.0957 10.4775 6.59375 10.583C7.0918 10.6826 7.66895 10.7324 8.3252 10.7324C9.30371 10.7324 10.1094 10.6211 10.7422 10.3984C11.375 10.1758 11.873 9.88574 12.2363 9.52832C12.6055 9.1709 12.8604 8.76953 13.001 8.32422C13.1475 7.87305 13.2207 7.42188 13.2207 6.9707ZM31.0955 13L22.948 4.70312V13H19.6873V0.923828H23.2293L31.3855 9.25586V0.923828H34.6287V13H31.0955ZM38.608 13V0.923828H41.8688V10.3545H50.6842V13H38.608ZM53.5033 13V0.923828H56.7641V13H53.5033ZM72.1604 13L64.0129 4.70312V13H60.7521V0.923828H64.2941L72.4504 9.25586V0.923828H75.6936V13H72.1604ZM79.6729 13V0.923828H91.8984V3.49902H83.0215V5.49414H91.4414V8.06934H83.0215V10.4248H92.0215V13H79.6729ZM106.504 4.3252C106.275 4.21387 105.973 4.08789 105.598 3.94727C105.223 3.80664 104.799 3.6748 104.324 3.55176C103.849 3.42285 103.334 3.31738 102.777 3.23535C102.221 3.14746 101.649 3.10352 101.063 3.10352C100.595 3.10352 100.193 3.11816 99.8592 3.14746C99.5311 3.17676 99.2527 3.21484 99.0242 3.26172C98.8016 3.30859 98.6228 3.36426 98.4881 3.42871C98.3592 3.4873 98.2596 3.54883 98.1893 3.61328C98.1189 3.67773 98.0721 3.74219 98.0486 3.80664C98.0311 3.87109 98.0223 3.92969 98.0223 3.98242C98.0223 4.1582 98.1102 4.31348 98.2859 4.44824C98.4617 4.57715 98.702 4.69434 99.0066 4.7998C99.3113 4.89941 99.6658 4.99609 100.07 5.08984C100.474 5.17773 100.902 5.27148 101.353 5.37109C101.81 5.46484 102.279 5.57031 102.76 5.6875C103.246 5.79883 103.715 5.93066 104.166 6.08301C104.623 6.23535 105.054 6.41406 105.458 6.61914C105.862 6.81836 106.217 7.05273 106.521 7.32227C106.826 7.5918 107.066 7.90234 107.242 8.25391C107.418 8.60547 107.506 9.00684 107.506 9.45801C107.506 10.0381 107.403 10.5361 107.198 10.9521C106.993 11.3682 106.718 11.7197 106.372 12.0068C106.032 12.2939 105.637 12.5254 105.185 12.7012C104.734 12.8711 104.26 13.0029 103.762 13.0967C103.269 13.1904 102.768 13.252 102.259 13.2812C101.755 13.3105 101.274 13.3252 100.817 13.3252C99.6219 13.3252 98.5145 13.2256 97.4949 13.0264C96.4812 12.833 95.5848 12.5898 94.8055 12.2969V9.41406C95.6082 9.85938 96.5223 10.208 97.5477 10.46C98.5789 10.7119 99.6805 10.8379 100.852 10.8379C101.544 10.8379 102.106 10.8027 102.54 10.7324C102.979 10.6562 103.322 10.5625 103.568 10.4512C103.814 10.334 103.981 10.208 104.069 10.0732C104.157 9.93848 104.201 9.80957 104.201 9.68652C104.201 9.49316 104.113 9.32617 103.937 9.18555C103.762 9.03906 103.521 8.91309 103.217 8.80762C102.912 8.69629 102.557 8.59668 102.153 8.50879C101.749 8.41504 101.318 8.32422 100.861 8.23633C100.41 8.14258 99.9441 8.04297 99.4637 7.9375C98.9832 7.83203 98.5145 7.70898 98.0574 7.56836C97.6062 7.42188 97.1785 7.25488 96.7742 7.06738C96.3699 6.87402 96.0154 6.64844 95.7107 6.39062C95.4061 6.12695 95.1658 5.8252 94.99 5.48535C94.8143 5.13965 94.7264 4.74121 94.7264 4.29004C94.7264 3.75684 94.8201 3.29688 95.0076 2.91016C95.1951 2.52344 95.4471 2.19531 95.7635 1.92578C96.0857 1.65039 96.4549 1.42773 96.8709 1.25781C97.2928 1.08789 97.7352 0.956055 98.198 0.862305C98.6609 0.768555 99.1297 0.704102 99.6043 0.668945C100.079 0.633789 100.53 0.616211 100.958 0.616211C101.427 0.616211 101.907 0.639648 102.399 0.686523C102.897 0.733398 103.387 0.800781 103.867 0.888672C104.347 0.970703 104.81 1.06738 105.256 1.17871C105.707 1.29004 106.123 1.40723 106.504 1.53027V4.3252ZM122.357 13V7.96387H114.06V13H110.799V0.923828H114.06V5.31836H122.357V0.923828H125.618V13H122.357ZM145.224 6.9707C145.224 8.00781 145.034 8.9248 144.653 9.72168C144.272 10.5127 143.727 11.1748 143.018 11.708C142.309 12.2412 141.448 12.6455 140.434 12.9209C139.426 13.1904 138.292 13.3252 137.033 13.3252C135.773 13.3252 134.633 13.1904 133.614 12.9209C132.6 12.6455 131.736 12.2412 131.021 11.708C130.306 11.1748 129.755 10.5127 129.369 9.72168C128.982 8.9248 128.788 8.00781 128.788 6.9707C128.788 5.93359 128.982 5.01953 129.369 4.22852C129.755 3.43164 130.306 2.7666 131.021 2.2334C131.736 1.7002 132.6 1.29883 133.614 1.0293C134.633 0.753906 135.773 0.616211 137.033 0.616211C138.292 0.616211 139.426 0.753906 140.434 1.0293C141.448 1.29883 142.309 1.7002 143.018 2.2334C143.727 2.7666 144.272 3.43164 144.653 4.22852C145.034 5.01953 145.224 5.93359 145.224 6.9707ZM141.928 6.9707C141.928 6.51953 141.855 6.07129 141.708 5.62598C141.568 5.1748 141.313 4.77051 140.944 4.41309C140.58 4.05566 140.082 3.76562 139.45 3.54297C138.817 3.32031 138.011 3.20898 137.033 3.20898C136.376 3.20898 135.799 3.26172 135.301 3.36719C134.803 3.4668 134.372 3.60742 134.009 3.78906C133.646 3.9707 133.341 4.18457 133.095 4.43066C132.849 4.6709 132.653 4.93164 132.506 5.21289C132.36 5.48828 132.254 5.77832 132.19 6.08301C132.131 6.38184 132.102 6.67773 132.102 6.9707C132.102 7.26953 132.131 7.57129 132.19 7.87598C132.254 8.18066 132.36 8.47363 132.506 8.75488C132.653 9.03027 132.849 9.28809 133.095 9.52832C133.341 9.76855 133.646 9.97949 134.009 10.1611C134.372 10.3369 134.803 10.4775 135.301 10.583C135.799 10.6826 136.376 10.7324 137.033 10.7324C138.011 10.7324 138.817 10.6211 139.45 10.3984C140.082 10.1758 140.58 9.88574 140.944 9.52832C141.313 9.1709 141.568 8.76953 141.708 8.32422C141.855 7.87305 141.928 7.42188 141.928 6.9707ZM161.965 5.0459C161.965 5.64941 161.877 6.20605 161.701 6.71582C161.526 7.21973 161.241 7.65625 160.849 8.02539C160.462 8.38867 159.958 8.67285 159.337 8.87793C158.716 9.08301 157.96 9.18555 157.07 9.18555H151.655V13H148.395V0.923828H157.07C157.96 0.923828 158.716 1.02637 159.337 1.23145C159.958 1.43066 160.462 1.71484 160.849 2.08398C161.241 2.44727 161.526 2.88086 161.701 3.38477C161.877 3.88867 161.965 4.44238 161.965 5.0459ZM158.669 5.09863C158.669 4.81738 158.628 4.57715 158.546 4.37793C158.47 4.17285 158.341 4.00586 158.159 3.87695C157.978 3.74805 157.74 3.6543 157.447 3.5957C157.154 3.53125 156.794 3.49902 156.366 3.49902H151.655V6.61035H156.366C156.794 6.61035 157.154 6.58691 157.447 6.54004C157.74 6.4873 157.978 6.40234 158.159 6.28516C158.341 6.16211 158.47 6.00391 158.546 5.81055C158.628 5.61719 158.669 5.37988 158.669 5.09863Z" fill="#2E2E2E"/>
</svg>
