<svg width="14" height="14" viewBox="0 0 14 14" fill="none" xmlns="http://www.w3.org/2000/svg">
<path d="M5.72065 6.23967C5.75398 6.01967 5.82732 5.82634 5.92065 5.65967C6.01398 5.49301 6.14732 5.35301 6.31398 5.24634C6.47398 5.14634 6.67398 5.09967 6.92065 5.09301C7.07398 5.09967 7.21398 5.12634 7.34065 5.17968C7.47398 5.23968 7.59398 5.31967 7.68732 5.41967C7.78065 5.51967 7.85398 5.63967 7.91398 5.77301C7.97398 5.90634 8.00065 6.05301 8.00732 6.19967H9.20065C9.18732 5.88634 9.12732 5.59967 9.01398 5.33967C8.90065 5.07967 8.74732 4.85301 8.54732 4.66634C8.34732 4.47967 8.10732 4.33301 7.82732 4.22634C7.54732 4.11967 7.24065 4.07301 6.90065 4.07301C6.46732 4.07301 6.08732 4.14634 5.76732 4.29967C5.44732 4.45301 5.18065 4.65301 4.96732 4.91301C4.75398 5.17301 4.59398 5.47301 4.49398 5.81967C4.39398 6.16634 4.33398 6.52634 4.33398 6.91301V7.09301C4.33398 7.47967 4.38732 7.83967 4.48732 8.18634C4.58732 8.53301 4.74732 8.83301 4.96065 9.08634C5.17398 9.33967 5.44065 9.54634 5.76065 9.69301C6.08065 9.83967 6.46065 9.91967 6.89398 9.91967C7.20732 9.91967 7.50065 9.86634 7.77398 9.76634C8.04732 9.66634 8.28732 9.52634 8.49398 9.34634C8.70065 9.16634 8.86732 8.95967 8.98732 8.71968C9.10732 8.47967 9.18065 8.22634 9.18732 7.95301H7.99398C7.98732 8.09301 7.95398 8.21968 7.89398 8.33967C7.83398 8.45967 7.75398 8.55968 7.65398 8.64634C7.55398 8.73301 7.44065 8.79967 7.30732 8.84634C7.18065 8.89301 7.04732 8.90634 6.90732 8.91301C6.66732 8.90634 6.46732 8.85968 6.31398 8.75968C6.14732 8.65301 6.01398 8.51301 5.92065 8.34634C5.82732 8.17968 5.75398 7.97967 5.72065 7.75968C5.68732 7.53967 5.66732 7.31301 5.66732 7.09301V6.91301C5.66732 6.67967 5.68732 6.45967 5.72065 6.23967ZM7.00065 0.333008C3.32065 0.333008 0.333984 3.31967 0.333984 6.99967C0.333984 10.6797 3.32065 13.6663 7.00065 13.6663C10.6807 13.6663 13.6673 10.6797 13.6673 6.99967C13.6673 3.31967 10.6807 0.333008 7.00065 0.333008ZM7.00065 12.333C4.06065 12.333 1.66732 9.93967 1.66732 6.99967C1.66732 4.05967 4.06065 1.66634 7.00065 1.66634C9.94065 1.66634 12.334 4.05967 12.334 6.99967C12.334 9.93967 9.94065 12.333 7.00065 12.333Z" fill="#121314"/>
</svg>
